<?xml version='1.0' encoding='UTF-8' standalone='no'?>
<svg version="1.1" width="620" height="300" xmlns="http://www.w3.org/2000/svg" xmlns:svg="http://www.w3.org/2000/svg">
   <g id="layer1"><g>
    <rect width="32" height="32" x="0.0" y="0.0" stroke="red" stroke-width="4" fill="lightblue"/>
    
  </g><g>
    <rect width="32" height="32" x="64.0" y="0.0" stroke="none" stroke-width="4" fill="none"/>
    <text x="70" y="22">1</text>
  </g><g>
    <rect width="32" height="32" x="128.0" y="0.0" stroke="none" stroke-width="4" fill="none"/>
    <text x="134" y="22">2</text>
  </g><g>
    <rect width="32" height="32" x="192.0" y="0.0" stroke="red" stroke-width="4" fill="white"/>
    
  </g><g>
    <rect width="32" height="32" x="256.0" y="0.0" stroke="none" stroke-width="4" fill="none"/>
    <text x="262" y="22">4</text>
  </g><g>
    <rect width="32" height="32" x="320.0" y="0.0" stroke="none" stroke-width="4" fill="lightblue"/>
    
  </g><g>
    <rect width="32" height="32" x="384.0" y="0.0" stroke="red" stroke-width="4" fill="white"/>
    
  </g><g>
    <rect width="32" height="32" x="448.0" y="0.0" stroke="none" stroke-width="4" fill="none"/>
    <text x="454" y="22">7</text>
  </g><g>
    <rect width="32" height="32" x="512.0" y="0.0" stroke="none" stroke-width="4" fill="none"/>
    <text x="518" y="22">8</text>
  </g><g>
    <rect width="32" height="32" x="576.0" y="0.0" stroke="red" stroke-width="4" fill="white"/>
    
  </g><g>
    <rect width="32" height="32" x="0.0" y="64.0" stroke="none" stroke-width="4" fill="lightblue"/>
    
  </g><g>
    <rect width="32" height="32" x="64.0" y="64.0" stroke="none" stroke-width="4" fill="none"/>
    <text x="70" y="86">11</text>
  </g><g>
    <rect width="32" height="32" x="128.0" y="64.0" stroke="red" stroke-width="4" fill="white"/>
    
  </g><g>
    <rect width="32" height="32" x="192.0" y="64.0" stroke="none" stroke-width="4" fill="none"/>
    <text x="198" y="86">13</text>
  </g><g>
    <rect width="32" height="32" x="256.0" y="64.0" stroke="none" stroke-width="4" fill="none"/>
    <text x="262" y="86">14</text>
  </g><g>
    <rect width="32" height="32" x="320.0" y="64.0" stroke="red" stroke-width="4" fill="lightblue"/>
    
  </g><g>
    <rect width="32" height="32" x="384.0" y="64.0" stroke="none" stroke-width="4" fill="none"/>
    <text x="390" y="86">16</text>
  </g><g>
    <rect width="32" height="32" x="448.0" y="64.0" stroke="none" stroke-width="4" fill="none"/>
    <text x="454" y="86">17</text>
  </g><g>
    <rect width="32" height="32" x="512.0" y="64.0" stroke="red" stroke-width="4" fill="white"/>
    
  </g><g>
    <rect width="32" height="32" x="576.0" y="64.0" stroke="none" stroke-width="4" fill="none"/>
    <text x="582" y="86">19</text>
  </g><g>
    <rect width="32" height="32" x="0.0" y="128.0" stroke="none" stroke-width="4" fill="lightblue"/>
    
  </g><g>
    <rect width="32" height="32" x="64.0" y="128.0" stroke="red" stroke-width="4" fill="white"/>
    
  </g><g>
    <rect width="32" height="32" x="128.0" y="128.0" stroke="none" stroke-width="4" fill="none"/>
    <text x="134" y="150">22</text>
  </g><g>
    <rect width="32" height="32" x="192.0" y="128.0" stroke="none" stroke-width="4" fill="none"/>
    <text x="198" y="150">23</text>
  </g><g>
    <rect width="32" height="32" x="256.0" y="128.0" stroke="red" stroke-width="4" fill="white"/>
    
  </g><g>
    <rect width="32" height="32" x="320.0" y="128.0" stroke="none" stroke-width="4" fill="lightblue"/>
    
  </g><g>
    <rect width="32" height="32" x="384.0" y="128.0" stroke="none" stroke-width="4" fill="none"/>
    <text x="390" y="150">26</text>
  </g><g>
    <rect width="32" height="32" x="448.0" y="128.0" stroke="red" stroke-width="4" fill="white"/>
    
  </g><g>
    <rect width="32" height="32" x="512.0" y="128.0" stroke="none" stroke-width="4" fill="none"/>
    <text x="518" y="150">28</text>
  </g><g>
    <rect width="32" height="32" x="576.0" y="128.0" stroke="none" stroke-width="4" fill="none"/>
    <text x="582" y="150">29</text>
  </g><g>
    <rect width="32" height="32" x="0.0" y="192.0" stroke="red" stroke-width="4" fill="lightblue"/>
    
  </g><g>
    <rect width="32" height="32" x="64.0" y="192.0" stroke="none" stroke-width="4" fill="none"/>
    <text x="70" y="214">31</text>
  </g><g>
    <rect width="32" height="32" x="128.0" y="192.0" stroke="none" stroke-width="4" fill="none"/>
    <text x="134" y="214">32</text>
  </g><g>
    <rect width="32" height="32" x="192.0" y="192.0" stroke="red" stroke-width="4" fill="white"/>
    
  </g><g>
    <rect width="32" height="32" x="256.0" y="192.0" stroke="none" stroke-width="4" fill="none"/>
    <text x="262" y="214">34</text>
  </g><g>
    <rect width="32" height="32" x="320.0" y="192.0" stroke="none" stroke-width="4" fill="lightblue"/>
    
  </g><g>
    <rect width="32" height="32" x="384.0" y="192.0" stroke="red" stroke-width="4" fill="white"/>
    
  </g><g>
    <rect width="32" height="32" x="448.0" y="192.0" stroke="none" stroke-width="4" fill="none"/>
    <text x="454" y="214">37</text>
  </g><g>
    <rect width="32" height="32" x="512.0" y="192.0" stroke="none" stroke-width="4" fill="none"/>
    <text x="518" y="214">38</text>
  </g><g>
    <rect width="32" height="32" x="576.0" y="192.0" stroke="red" stroke-width="4" fill="white"/>
    
  </g><g>
    <rect width="32" height="32" x="0.0" y="256.0" stroke="none" stroke-width="4" fill="lightblue"/>
    
  </g><g>
    <rect width="32" height="32" x="64.0" y="256.0" stroke="none" stroke-width="4" fill="none"/>
    <text x="70" y="278">41</text>
  </g><g>
    <rect width="32" height="32" x="128.0" y="256.0" stroke="red" stroke-width="4" fill="white"/>
    
  </g><g>
    <rect width="32" height="32" x="192.0" y="256.0" stroke="none" stroke-width="4" fill="none"/>
    <text x="198" y="278">43</text>
  </g><g>
    <rect width="32" height="32" x="256.0" y="256.0" stroke="none" stroke-width="4" fill="none"/>
    <text x="262" y="278">44</text>
  </g><g>
    <rect width="32" height="32" x="320.0" y="256.0" stroke="red" stroke-width="4" fill="lightblue"/>
    
  </g></g>
  </svg>
