<?xml version='1.0' encoding='UTF-8' standalone='no'?>
<svg version="1.1" width="620" height="300" xmlns="http://www.w3.org/2000/svg" xmlns:svg="http://www.w3.org/2000/svg">
   <g id="layer1"><g>
    <rect width="32" height="32" x="5.0" y="5.0" stroke="red" stroke-width="4" fill="lightblue"/>
    
  </g><g>
    <rect width="32" height="32" x="69.0" y="5.0" stroke="none" stroke-width="4" fill="none"/>
    <text x="75" y="27">1</text>
  </g><g>
    <rect width="32" height="32" x="133.0" y="5.0" stroke="none" stroke-width="4" fill="none"/>
    <text x="139" y="27">2</text>
  </g><g>
    <rect width="32" height="32" x="197.0" y="5.0" stroke="red" stroke-width="4" fill="white"/>
    
  </g><g>
    <rect width="32" height="32" x="261.0" y="5.0" stroke="none" stroke-width="4" fill="none"/>
    <text x="267" y="27">4</text>
  </g><g>
    <rect width="32" height="32" x="325.0" y="5.0" stroke="none" stroke-width="4" fill="lightblue"/>
    
  </g><g>
    <rect width="32" height="32" x="389.0" y="5.0" stroke="red" stroke-width="4" fill="white"/>
    
  </g><g>
    <rect width="32" height="32" x="453.0" y="5.0" stroke="none" stroke-width="4" fill="none"/>
    <text x="459" y="27">7</text>
  </g><g>
    <rect width="32" height="32" x="517.0" y="5.0" stroke="none" stroke-width="4" fill="none"/>
    <text x="523" y="27">8</text>
  </g><g>
    <rect width="32" height="32" x="581.0" y="5.0" stroke="red" stroke-width="4" fill="white"/>
    
  </g><g>
    <rect width="32" height="32" x="5.0" y="69.0" stroke="none" stroke-width="4" fill="lightblue"/>
    
  </g><g>
    <rect width="32" height="32" x="69.0" y="69.0" stroke="none" stroke-width="4" fill="none"/>
    <text x="75" y="91">11</text>
  </g><g>
    <rect width="32" height="32" x="133.0" y="69.0" stroke="red" stroke-width="4" fill="white"/>
    
  </g><g>
    <rect width="32" height="32" x="197.0" y="69.0" stroke="none" stroke-width="4" fill="none"/>
    <text x="203" y="91">13</text>
  </g><g>
    <rect width="32" height="32" x="261.0" y="69.0" stroke="none" stroke-width="4" fill="none"/>
    <text x="267" y="91">14</text>
  </g><g>
    <rect width="32" height="32" x="325.0" y="69.0" stroke="red" stroke-width="4" fill="lightblue"/>
    
  </g><g>
    <rect width="32" height="32" x="389.0" y="69.0" stroke="none" stroke-width="4" fill="none"/>
    <text x="395" y="91">16</text>
  </g><g>
    <rect width="32" height="32" x="453.0" y="69.0" stroke="none" stroke-width="4" fill="none"/>
    <text x="459" y="91">17</text>
  </g><g>
    <rect width="32" height="32" x="517.0" y="69.0" stroke="red" stroke-width="4" fill="white"/>
    
  </g><g>
    <rect width="32" height="32" x="581.0" y="69.0" stroke="none" stroke-width="4" fill="none"/>
    <text x="587" y="91">19</text>
  </g><g>
    <rect width="32" height="32" x="5.0" y="133.0" stroke="none" stroke-width="4" fill="lightblue"/>
    
  </g><g>
    <rect width="32" height="32" x="69.0" y="133.0" stroke="red" stroke-width="4" fill="white"/>
    
  </g><g>
    <rect width="32" height="32" x="133.0" y="133.0" stroke="none" stroke-width="4" fill="none"/>
    <text x="139" y="155">22</text>
  </g><g>
    <rect width="32" height="32" x="197.0" y="133.0" stroke="none" stroke-width="4" fill="none"/>
    <text x="203" y="155">23</text>
  </g><g>
    <rect width="32" height="32" x="261.0" y="133.0" stroke="red" stroke-width="4" fill="white"/>
    
  </g><g>
    <rect width="32" height="32" x="325.0" y="133.0" stroke="none" stroke-width="4" fill="lightblue"/>
    
  </g><g>
    <rect width="32" height="32" x="389.0" y="133.0" stroke="none" stroke-width="4" fill="none"/>
    <text x="395" y="155">26</text>
  </g><g>
    <rect width="32" height="32" x="453.0" y="133.0" stroke="red" stroke-width="4" fill="white"/>
    
  </g><g>
    <rect width="32" height="32" x="517.0" y="133.0" stroke="none" stroke-width="4" fill="none"/>
    <text x="523" y="155">28</text>
  </g><g>
    <rect width="32" height="32" x="581.0" y="133.0" stroke="none" stroke-width="4" fill="none"/>
    <text x="587" y="155">29</text>
  </g><g>
    <rect width="32" height="32" x="5.0" y="197.0" stroke="red" stroke-width="4" fill="lightblue"/>
    
  </g><g>
    <rect width="32" height="32" x="69.0" y="197.0" stroke="none" stroke-width="4" fill="none"/>
    <text x="75" y="219">31</text>
  </g><g>
    <rect width="32" height="32" x="133.0" y="197.0" stroke="none" stroke-width="4" fill="none"/>
    <text x="139" y="219">32</text>
  </g><g>
    <rect width="32" height="32" x="197.0" y="197.0" stroke="red" stroke-width="4" fill="white"/>
    
  </g><g>
    <rect width="32" height="32" x="261.0" y="197.0" stroke="none" stroke-width="4" fill="none"/>
    <text x="267" y="219">34</text>
  </g><g>
    <rect width="32" height="32" x="325.0" y="197.0" stroke="none" stroke-width="4" fill="lightblue"/>
    
  </g><g>
    <rect width="32" height="32" x="389.0" y="197.0" stroke="red" stroke-width="4" fill="white"/>
    
  </g><g>
    <rect width="32" height="32" x="453.0" y="197.0" stroke="none" stroke-width="4" fill="none"/>
    <text x="459" y="219">37</text>
  </g><g>
    <rect width="32" height="32" x="517.0" y="197.0" stroke="none" stroke-width="4" fill="none"/>
    <text x="523" y="219">38</text>
  </g><g>
    <rect width="32" height="32" x="581.0" y="197.0" stroke="red" stroke-width="4" fill="white"/>
    
  </g><g>
    <rect width="32" height="32" x="5.0" y="261.0" stroke="none" stroke-width="4" fill="lightblue"/>
    
  </g><g>
    <rect width="32" height="32" x="69.0" y="261.0" stroke="none" stroke-width="4" fill="none"/>
    <text x="75" y="283">41</text>
  </g><g>
    <rect width="32" height="32" x="133.0" y="261.0" stroke="red" stroke-width="4" fill="white"/>
    
  </g><g>
    <rect width="32" height="32" x="197.0" y="261.0" stroke="none" stroke-width="4" fill="none"/>
    <text x="203" y="283">43</text>
  </g><g>
    <rect width="32" height="32" x="261.0" y="261.0" stroke="none" stroke-width="4" fill="none"/>
    <text x="267" y="283">44</text>
  </g><g>
    <rect width="32" height="32" x="325.0" y="261.0" stroke="red" stroke-width="4" fill="lightblue"/>
    
  </g></g>
  </svg>
