<?xml version='1.0' encoding='UTF-8' standalone='no'?>
<svg version="1.1" width="200" height="200" xmlns="http://www.w3.org/2000/svg" xmlns:svg="http://www.w3.org/2000/svg">
   <g id="layer1"><rect width="100" height="100" x="0" y="0" style="stroke:purple;stroke-width:1;fill:none"/><rect width="100" height="100" x="100" y="0" style="stroke:purple;stroke-width:1;fill:none"/><rect width="100" height="100" x="0" y="100" style="stroke:purple;stroke-width:1;fill:none"/><rect width="100" height="100" x="100" y="100" style="stroke:purple;stroke-width:1;fill:none"/><rect width="25" height="25" x="2" y="2" style="stroke:purple;stroke-width:1;fill:none"/><rect width="25" height="25" x="27" y="2" style="stroke:purple;stroke-width:1;fill:none"/><rect width="25" height="25" x="2" y="27" style="stroke:purple;stroke-width:1;fill:none"/><rect width="25" height="25" x="27" y="27" style="stroke:purple;stroke-width:1;fill:none"/><rect width="6" height="6" x="4" y="4" style="stroke:purple;stroke-width:1;fill:none"/><rect width="6" height="6" x="10" y="4" style="stroke:purple;stroke-width:1;fill:none"/><rect width="6" height="6" x="4" y="10" style="stroke:purple;stroke-width:1;fill:none"/><rect width="6" height="6" x="10" y="10" style="stroke:purple;stroke-width:1;fill:none"/><rect width="6" height="6" x="29" y="4" style="stroke:purple;stroke-width:1;fill:none"/><rect width="6" height="6" x="35" y="4" style="stroke:purple;stroke-width:1;fill:none"/><rect width="6" height="6" x="29" y="10" style="stroke:purple;stroke-width:1;fill:none"/><rect width="6" height="6" x="35" y="10" style="stroke:purple;stroke-width:1;fill:none"/><rect width="6" height="6" x="4" y="29" style="stroke:purple;stroke-width:1;fill:none"/><rect width="6" height="6" x="10" y="29" style="stroke:purple;stroke-width:1;fill:none"/><rect width="6" height="6" x="4" y="35" style="stroke:purple;stroke-width:1;fill:none"/><rect width="6" height="6" x="10" y="35" style="stroke:purple;stroke-width:1;fill:none"/><rect width="6" height="6" x="29" y="29" style="stroke:purple;stroke-width:1;fill:none"/><rect width="6" height="6" x="35" y="29" style="stroke:purple;stroke-width:1;fill:none"/><rect width="6" height="6" x="29" y="35" style="stroke:purple;stroke-width:1;fill:none"/><rect width="6" height="6" x="35" y="35" style="stroke:purple;stroke-width:1;fill:none"/><rect width="25" height="25" x="102" y="2" style="stroke:purple;stroke-width:1;fill:none"/><rect width="25" height="25" x="127" y="2" style="stroke:purple;stroke-width:1;fill:none"/><rect width="25" height="25" x="102" y="27" style="stroke:purple;stroke-width:1;fill:none"/><rect width="25" height="25" x="127" y="27" style="stroke:purple;stroke-width:1;fill:none"/><rect width="6" height="6" x="104" y="4" style="stroke:purple;stroke-width:1;fill:none"/><rect width="6" height="6" x="110" y="4" style="stroke:purple;stroke-width:1;fill:none"/><rect width="6" height="6" x="104" y="10" style="stroke:purple;stroke-width:1;fill:none"/><rect width="6" height="6" x="110" y="10" style="stroke:purple;stroke-width:1;fill:none"/><rect width="6" height="6" x="129" y="4" style="stroke:purple;stroke-width:1;fill:none"/><rect width="6" height="6" x="135" y="4" style="stroke:purple;stroke-width:1;fill:none"/><rect width="6" height="6" x="129" y="10" style="stroke:purple;stroke-width:1;fill:none"/><rect width="6" height="6" x="135" y="10" style="stroke:purple;stroke-width:1;fill:none"/><rect width="6" height="6" x="104" y="29" style="stroke:purple;stroke-width:1;fill:none"/><rect width="6" height="6" x="110" y="29" style="stroke:purple;stroke-width:1;fill:none"/><rect width="6" height="6" x="104" y="35" style="stroke:purple;stroke-width:1;fill:none"/><rect width="6" height="6" x="110" y="35" style="stroke:purple;stroke-width:1;fill:none"/><rect width="6" height="6" x="129" y="29" style="stroke:purple;stroke-width:1;fill:none"/><rect width="6" height="6" x="135" y="29" style="stroke:purple;stroke-width:1;fill:none"/><rect width="6" height="6" x="129" y="35" style="stroke:purple;stroke-width:1;fill:none"/><rect width="6" height="6" x="135" y="35" style="stroke:purple;stroke-width:1;fill:none"/><rect width="25" height="25" x="2" y="102" style="stroke:purple;stroke-width:1;fill:none"/><rect width="25" height="25" x="27" y="102" style="stroke:purple;stroke-width:1;fill:none"/><rect width="25" height="25" x="2" y="127" style="stroke:purple;stroke-width:1;fill:none"/><rect width="25" height="25" x="27" y="127" style="stroke:purple;stroke-width:1;fill:none"/><rect width="6" height="6" x="4" y="104" style="stroke:purple;stroke-width:1;fill:none"/><rect width="6" height="6" x="10" y="104" style="stroke:purple;stroke-width:1;fill:none"/><rect width="6" height="6" x="4" y="110" style="stroke:purple;stroke-width:1;fill:none"/><rect width="6" height="6" x="10" y="110" style="stroke:purple;stroke-width:1;fill:none"/><rect width="6" height="6" x="29" y="104" style="stroke:purple;stroke-width:1;fill:none"/><rect width="6" height="6" x="35" y="104" style="stroke:purple;stroke-width:1;fill:none"/><rect width="6" height="6" x="29" y="110" style="stroke:purple;stroke-width:1;fill:none"/><rect width="6" height="6" x="35" y="110" style="stroke:purple;stroke-width:1;fill:none"/><rect width="6" height="6" x="4" y="129" style="stroke:purple;stroke-width:1;fill:none"/><rect width="6" height="6" x="10" y="129" style="stroke:purple;stroke-width:1;fill:none"/><rect width="6" height="6" x="4" y="135" style="stroke:purple;stroke-width:1;fill:none"/><rect width="6" height="6" x="10" y="135" style="stroke:purple;stroke-width:1;fill:none"/><rect width="6" height="6" x="29" y="129" style="stroke:purple;stroke-width:1;fill:none"/><rect width="6" height="6" x="35" y="129" style="stroke:purple;stroke-width:1;fill:none"/><rect width="6" height="6" x="29" y="135" style="stroke:purple;stroke-width:1;fill:none"/><rect width="6" height="6" x="35" y="135" style="stroke:purple;stroke-width:1;fill:none"/><rect width="25" height="25" x="102" y="102" style="stroke:purple;stroke-width:1;fill:none"/><rect width="25" height="25" x="127" y="102" style="stroke:purple;stroke-width:1;fill:none"/><rect width="25" height="25" x="102" y="127" style="stroke:purple;stroke-width:1;fill:none"/><rect width="25" height="25" x="127" y="127" style="stroke:purple;stroke-width:1;fill:none"/><rect width="6" height="6" x="104" y="104" style="stroke:purple;stroke-width:1;fill:none"/><rect width="6" height="6" x="110" y="104" style="stroke:purple;stroke-width:1;fill:none"/><rect width="6" height="6" x="104" y="110" style="stroke:purple;stroke-width:1;fill:none"/><rect width="6" height="6" x="110" y="110" style="stroke:purple;stroke-width:1;fill:none"/><rect width="6" height="6" x="129" y="104" style="stroke:purple;stroke-width:1;fill:none"/><rect width="6" height="6" x="135" y="104" style="stroke:purple;stroke-width:1;fill:none"/><rect width="6" height="6" x="129" y="110" style="stroke:purple;stroke-width:1;fill:none"/><rect width="6" height="6" x="135" y="110" style="stroke:purple;stroke-width:1;fill:none"/><rect width="6" height="6" x="104" y="129" style="stroke:purple;stroke-width:1;fill:none"/><rect width="6" height="6" x="110" y="129" style="stroke:purple;stroke-width:1;fill:none"/><rect width="6" height="6" x="104" y="135" style="stroke:purple;stroke-width:1;fill:none"/><rect width="6" height="6" x="110" y="135" style="stroke:purple;stroke-width:1;fill:none"/><rect width="6" height="6" x="129" y="129" style="stroke:purple;stroke-width:1;fill:none"/><rect width="6" height="6" x="135" y="129" style="stroke:purple;stroke-width:1;fill:none"/><rect width="6" height="6" x="129" y="135" style="stroke:purple;stroke-width:1;fill:none"/><rect width="6" height="6" x="135" y="135" style="stroke:purple;stroke-width:1;fill:none"/></g>
  </svg>
