<?xml version='1.0' encoding='UTF-8' standalone='no'?>
<svg version="1.1" width="280" height="280" xmlns="http://www.w3.org/2000/svg" xmlns:svg="http://www.w3.org/2000/svg">
   <g id="layer1"><circle cx="140.0" cy="140.0" r="140.0" style="stroke:purple;stroke-width:1;fill:none"/><circle cx="70.0" cy="140.0" r="70.0" style="stroke:purple;stroke-width:1;fill:none"/><circle cx="35.0" cy="140.0" r="35.0" style="stroke:purple;stroke-width:1;fill:none"/><circle cx="17.5" cy="140.0" r="17.5" style="stroke:purple;stroke-width:1;fill:none"/><circle cx="8.75" cy="140.0" r="8.75" style="stroke:purple;stroke-width:1;fill:none"/><circle cx="4.375" cy="140.0" r="4.375" style="stroke:purple;stroke-width:1;fill:none"/><circle cx="13.125" cy="140.0" r="4.375" style="stroke:purple;stroke-width:1;fill:none"/><circle cx="26.25" cy="140.0" r="8.75" style="stroke:purple;stroke-width:1;fill:none"/><circle cx="21.875" cy="140.0" r="4.375" style="stroke:purple;stroke-width:1;fill:none"/><circle cx="30.625" cy="140.0" r="4.375" style="stroke:purple;stroke-width:1;fill:none"/><circle cx="52.5" cy="140.0" r="17.5" style="stroke:purple;stroke-width:1;fill:none"/><circle cx="43.75" cy="140.0" r="8.75" style="stroke:purple;stroke-width:1;fill:none"/><circle cx="39.375" cy="140.0" r="4.375" style="stroke:purple;stroke-width:1;fill:none"/><circle cx="48.125" cy="140.0" r="4.375" style="stroke:purple;stroke-width:1;fill:none"/><circle cx="61.25" cy="140.0" r="8.75" style="stroke:purple;stroke-width:1;fill:none"/><circle cx="56.875" cy="140.0" r="4.375" style="stroke:purple;stroke-width:1;fill:none"/><circle cx="65.625" cy="140.0" r="4.375" style="stroke:purple;stroke-width:1;fill:none"/><circle cx="105.0" cy="140.0" r="35.0" style="stroke:purple;stroke-width:1;fill:none"/><circle cx="87.5" cy="140.0" r="17.5" style="stroke:purple;stroke-width:1;fill:none"/><circle cx="78.75" cy="140.0" r="8.75" style="stroke:purple;stroke-width:1;fill:none"/><circle cx="74.375" cy="140.0" r="4.375" style="stroke:purple;stroke-width:1;fill:none"/><circle cx="83.125" cy="140.0" r="4.375" style="stroke:purple;stroke-width:1;fill:none"/><circle cx="96.25" cy="140.0" r="8.75" style="stroke:purple;stroke-width:1;fill:none"/><circle cx="91.875" cy="140.0" r="4.375" style="stroke:purple;stroke-width:1;fill:none"/><circle cx="100.625" cy="140.0" r="4.375" style="stroke:purple;stroke-width:1;fill:none"/><circle cx="122.5" cy="140.0" r="17.5" style="stroke:purple;stroke-width:1;fill:none"/><circle cx="113.75" cy="140.0" r="8.75" style="stroke:purple;stroke-width:1;fill:none"/><circle cx="109.375" cy="140.0" r="4.375" style="stroke:purple;stroke-width:1;fill:none"/><circle cx="118.125" cy="140.0" r="4.375" style="stroke:purple;stroke-width:1;fill:none"/><circle cx="131.25" cy="140.0" r="8.75" style="stroke:purple;stroke-width:1;fill:none"/><circle cx="126.875" cy="140.0" r="4.375" style="stroke:purple;stroke-width:1;fill:none"/><circle cx="135.625" cy="140.0" r="4.375" style="stroke:purple;stroke-width:1;fill:none"/><circle cx="210.0" cy="140.0" r="70.0" style="stroke:purple;stroke-width:1;fill:none"/><circle cx="175.0" cy="140.0" r="35.0" style="stroke:purple;stroke-width:1;fill:none"/><circle cx="157.5" cy="140.0" r="17.5" style="stroke:purple;stroke-width:1;fill:none"/><circle cx="148.75" cy="140.0" r="8.75" style="stroke:purple;stroke-width:1;fill:none"/><circle cx="144.375" cy="140.0" r="4.375" style="stroke:purple;stroke-width:1;fill:none"/><circle cx="153.125" cy="140.0" r="4.375" style="stroke:purple;stroke-width:1;fill:none"/><circle cx="166.25" cy="140.0" r="8.75" style="stroke:purple;stroke-width:1;fill:none"/><circle cx="161.875" cy="140.0" r="4.375" style="stroke:purple;stroke-width:1;fill:none"/><circle cx="170.625" cy="140.0" r="4.375" style="stroke:purple;stroke-width:1;fill:none"/><circle cx="192.5" cy="140.0" r="17.5" style="stroke:purple;stroke-width:1;fill:none"/><circle cx="183.75" cy="140.0" r="8.75" style="stroke:purple;stroke-width:1;fill:none"/><circle cx="179.375" cy="140.0" r="4.375" style="stroke:purple;stroke-width:1;fill:none"/><circle cx="188.125" cy="140.0" r="4.375" style="stroke:purple;stroke-width:1;fill:none"/><circle cx="201.25" cy="140.0" r="8.75" style="stroke:purple;stroke-width:1;fill:none"/><circle cx="196.875" cy="140.0" r="4.375" style="stroke:purple;stroke-width:1;fill:none"/><circle cx="205.625" cy="140.0" r="4.375" style="stroke:purple;stroke-width:1;fill:none"/><circle cx="245.0" cy="140.0" r="35.0" style="stroke:purple;stroke-width:1;fill:none"/><circle cx="227.5" cy="140.0" r="17.5" style="stroke:purple;stroke-width:1;fill:none"/><circle cx="218.75" cy="140.0" r="8.75" style="stroke:purple;stroke-width:1;fill:none"/><circle cx="214.375" cy="140.0" r="4.375" style="stroke:purple;stroke-width:1;fill:none"/><circle cx="223.125" cy="140.0" r="4.375" style="stroke:purple;stroke-width:1;fill:none"/><circle cx="236.25" cy="140.0" r="8.75" style="stroke:purple;stroke-width:1;fill:none"/><circle cx="231.875" cy="140.0" r="4.375" style="stroke:purple;stroke-width:1;fill:none"/><circle cx="240.625" cy="140.0" r="4.375" style="stroke:purple;stroke-width:1;fill:none"/><circle cx="262.5" cy="140.0" r="17.5" style="stroke:purple;stroke-width:1;fill:none"/><circle cx="253.75" cy="140.0" r="8.75" style="stroke:purple;stroke-width:1;fill:none"/><circle cx="249.375" cy="140.0" r="4.375" style="stroke:purple;stroke-width:1;fill:none"/><circle cx="258.125" cy="140.0" r="4.375" style="stroke:purple;stroke-width:1;fill:none"/><circle cx="271.25" cy="140.0" r="8.75" style="stroke:purple;stroke-width:1;fill:none"/><circle cx="266.875" cy="140.0" r="4.375" style="stroke:purple;stroke-width:1;fill:none"/><circle cx="275.625" cy="140.0" r="4.375" style="stroke:purple;stroke-width:1;fill:none"/></g>
  </svg>
