<?xml version='1.0' encoding='UTF-8' standalone='no'?>
<svg version="1.1" width="280" height="280" xmlns="http://www.w3.org/2000/svg" xmlns:svg="http://www.w3.org/2000/svg">
   <g id="layer1"><rect width="40.0" height="40.0" x="50.0" y="50.0" style="stroke:maroon;stroke-width:1;fill:none"/><rect width="40.0" height="40.0" x="190.0" y="50.0" style="stroke:maroon;stroke-width:1;fill:none"/><rect width="40.0" height="40.0" x="50.0" y="190.0" style="stroke:maroon;stroke-width:1;fill:none"/><rect width="40.0" height="40.0" x="190.0" y="190.0" style="stroke:maroon;stroke-width:1;fill:none"/><rect width="20.0" height="20.0" x="25.0" y="25.0" style="stroke:maroon;stroke-width:1;fill:none"/><rect width="20.0" height="20.0" x="95.0" y="25.0" style="stroke:maroon;stroke-width:1;fill:none"/><rect width="20.0" height="20.0" x="25.0" y="95.0" style="stroke:maroon;stroke-width:1;fill:none"/><rect width="10.0" height="10.0" x="12.5" y="12.5" style="stroke:maroon;stroke-width:1;fill:none"/><rect width="10.0" height="10.0" x="47.5" y="12.5" style="stroke:maroon;stroke-width:1;fill:none"/><rect width="10.0" height="10.0" x="12.5" y="47.5" style="stroke:maroon;stroke-width:1;fill:none"/><rect width="5.0" height="5.0" x="6.25" y="6.25" style="stroke:maroon;stroke-width:1;fill:none"/><rect width="5.0" height="5.0" x="23.75" y="6.25" style="stroke:maroon;stroke-width:1;fill:none"/><rect width="5.0" height="5.0" x="6.25" y="23.75" style="stroke:maroon;stroke-width:1;fill:none"/><rect width="2.5" height="2.5" x="3.125" y="3.125" style="stroke:maroon;stroke-width:1;fill:none"/><rect width="2.5" height="2.5" x="11.875" y="3.125" style="stroke:maroon;stroke-width:1;fill:none"/><rect width="2.5" height="2.5" x="3.125" y="11.875" style="stroke:maroon;stroke-width:1;fill:none"/><rect width="2.5" height="2.5" x="20.625" y="3.125" style="stroke:maroon;stroke-width:1;fill:none"/><rect width="2.5" height="2.5" x="29.375" y="3.125" style="stroke:maroon;stroke-width:1;fill:none"/><rect width="2.5" height="2.5" x="29.375" y="11.875" style="stroke:maroon;stroke-width:1;fill:none"/><rect width="2.5" height="2.5" x="3.125" y="20.625" style="stroke:maroon;stroke-width:1;fill:none"/><rect width="2.5" height="2.5" x="3.125" y="29.375" style="stroke:maroon;stroke-width:1;fill:none"/><rect width="2.5" height="2.5" x="11.875" y="29.375" style="stroke:maroon;stroke-width:1;fill:none"/><rect width="5.0" height="5.0" x="41.25" y="6.25" style="stroke:maroon;stroke-width:1;fill:none"/><rect width="5.0" height="5.0" x="58.75" y="6.25" style="stroke:maroon;stroke-width:1;fill:none"/><rect width="5.0" height="5.0" x="58.75" y="23.75" style="stroke:maroon;stroke-width:1;fill:none"/><rect width="2.5" height="2.5" x="38.125" y="3.125" style="stroke:maroon;stroke-width:1;fill:none"/><rect width="2.5" height="2.5" x="46.875" y="3.125" style="stroke:maroon;stroke-width:1;fill:none"/><rect width="2.5" height="2.5" x="38.125" y="11.875" style="stroke:maroon;stroke-width:1;fill:none"/><rect width="2.5" height="2.5" x="55.625" y="3.125" style="stroke:maroon;stroke-width:1;fill:none"/><rect width="2.5" height="2.5" x="64.375" y="3.125" style="stroke:maroon;stroke-width:1;fill:none"/><rect width="2.5" height="2.5" x="64.375" y="11.875" style="stroke:maroon;stroke-width:1;fill:none"/><rect width="2.5" height="2.5" x="64.375" y="20.625" style="stroke:maroon;stroke-width:1;fill:none"/><rect width="2.5" height="2.5" x="55.625" y="29.375" style="stroke:maroon;stroke-width:1;fill:none"/><rect width="2.5" height="2.5" x="64.375" y="29.375" style="stroke:maroon;stroke-width:1;fill:none"/><rect width="5.0" height="5.0" x="6.25" y="41.25" style="stroke:maroon;stroke-width:1;fill:none"/><rect width="5.0" height="5.0" x="6.25" y="58.75" style="stroke:maroon;stroke-width:1;fill:none"/><rect width="5.0" height="5.0" x="23.75" y="58.75" style="stroke:maroon;stroke-width:1;fill:none"/><rect width="2.5" height="2.5" x="3.125" y="38.125" style="stroke:maroon;stroke-width:1;fill:none"/><rect width="2.5" height="2.5" x="11.875" y="38.125" style="stroke:maroon;stroke-width:1;fill:none"/><rect width="2.5" height="2.5" x="3.125" y="46.875" style="stroke:maroon;stroke-width:1;fill:none"/><rect width="2.5" height="2.5" x="3.125" y="55.625" style="stroke:maroon;stroke-width:1;fill:none"/><rect width="2.5" height="2.5" x="3.125" y="64.375" style="stroke:maroon;stroke-width:1;fill:none"/><rect width="2.5" height="2.5" x="11.875" y="64.375" style="stroke:maroon;stroke-width:1;fill:none"/><rect width="2.5" height="2.5" x="29.375" y="55.625" style="stroke:maroon;stroke-width:1;fill:none"/><rect width="2.5" height="2.5" x="20.625" y="64.375" style="stroke:maroon;stroke-width:1;fill:none"/><rect width="2.5" height="2.5" x="29.375" y="64.375" style="stroke:maroon;stroke-width:1;fill:none"/><rect width="10.0" height="10.0" x="82.5" y="12.5" style="stroke:maroon;stroke-width:1;fill:none"/><rect width="10.0" height="10.0" x="117.5" y="12.5" style="stroke:maroon;stroke-width:1;fill:none"/><rect width="10.0" height="10.0" x="117.5" y="47.5" style="stroke:maroon;stroke-width:1;fill:none"/><rect width="5.0" height="5.0" x="76.25" y="6.25" style="stroke:maroon;stroke-width:1;fill:none"/><rect width="5.0" height="5.0" x="93.75" y="6.25" style="stroke:maroon;stroke-width:1;fill:none"/><rect width="5.0" height="5.0" x="76.25" y="23.75" style="stroke:maroon;stroke-width:1;fill:none"/><rect width="2.5" height="2.5" x="73.125" y="3.125" style="stroke:maroon;stroke-width:1;fill:none"/><rect width="2.5" height="2.5" x="81.875" y="3.125" style="stroke:maroon;stroke-width:1;fill:none"/><rect width="2.5" height="2.5" x="73.125" y="11.875" style="stroke:maroon;stroke-width:1;fill:none"/><rect width="2.5" height="2.5" x="90.625" y="3.125" style="stroke:maroon;stroke-width:1;fill:none"/><rect width="2.5" height="2.5" x="99.375" y="3.125" style="stroke:maroon;stroke-width:1;fill:none"/><rect width="2.5" height="2.5" x="99.375" y="11.875" style="stroke:maroon;stroke-width:1;fill:none"/><rect width="2.5" height="2.5" x="73.125" y="20.625" style="stroke:maroon;stroke-width:1;fill:none"/><rect width="2.5" height="2.5" x="73.125" y="29.375" style="stroke:maroon;stroke-width:1;fill:none"/><rect width="2.5" height="2.5" x="81.875" y="29.375" style="stroke:maroon;stroke-width:1;fill:none"/><rect width="5.0" height="5.0" x="111.25" y="6.25" style="stroke:maroon;stroke-width:1;fill:none"/><rect width="5.0" height="5.0" x="128.75" y="6.25" style="stroke:maroon;stroke-width:1;fill:none"/><rect width="5.0" height="5.0" x="128.75" y="23.75" style="stroke:maroon;stroke-width:1;fill:none"/><rect width="2.5" height="2.5" x="108.125" y="3.125" style="stroke:maroon;stroke-width:1;fill:none"/><rect width="2.5" height="2.5" x="116.875" y="3.125" style="stroke:maroon;stroke-width:1;fill:none"/><rect width="2.5" height="2.5" x="108.125" y="11.875" style="stroke:maroon;stroke-width:1;fill:none"/><rect width="2.5" height="2.5" x="125.625" y="3.125" style="stroke:maroon;stroke-width:1;fill:none"/><rect width="2.5" height="2.5" x="134.375" y="3.125" style="stroke:maroon;stroke-width:1;fill:none"/><rect width="2.5" height="2.5" x="134.375" y="11.875" style="stroke:maroon;stroke-width:1;fill:none"/><rect width="2.5" height="2.5" x="134.375" y="20.625" style="stroke:maroon;stroke-width:1;fill:none"/><rect width="2.5" height="2.5" x="125.625" y="29.375" style="stroke:maroon;stroke-width:1;fill:none"/><rect width="2.5" height="2.5" x="134.375" y="29.375" style="stroke:maroon;stroke-width:1;fill:none"/><rect width="5.0" height="5.0" x="128.75" y="41.25" style="stroke:maroon;stroke-width:1;fill:none"/><rect width="5.0" height="5.0" x="111.25" y="58.75" style="stroke:maroon;stroke-width:1;fill:none"/><rect width="5.0" height="5.0" x="128.75" y="58.75" style="stroke:maroon;stroke-width:1;fill:none"/><rect width="2.5" height="2.5" x="125.625" y="38.125" style="stroke:maroon;stroke-width:1;fill:none"/><rect width="2.5" height="2.5" x="134.375" y="38.125" style="stroke:maroon;stroke-width:1;fill:none"/><rect width="2.5" height="2.5" x="134.375" y="46.875" style="stroke:maroon;stroke-width:1;fill:none"/><rect width="2.5" height="2.5" x="108.125" y="55.625" style="stroke:maroon;stroke-width:1;fill:none"/><rect width="2.5" height="2.5" x="108.125" y="64.375" style="stroke:maroon;stroke-width:1;fill:none"/><rect width="2.5" height="2.5" x="116.875" y="64.375" style="stroke:maroon;stroke-width:1;fill:none"/><rect width="2.5" height="2.5" x="134.375" y="55.625" style="stroke:maroon;stroke-width:1;fill:none"/><rect width="2.5" height="2.5" x="125.625" y="64.375" style="stroke:maroon;stroke-width:1;fill:none"/><rect width="2.5" height="2.5" x="134.375" y="64.375" style="stroke:maroon;stroke-width:1;fill:none"/><rect width="10.0" height="10.0" x="12.5" y="82.5" style="stroke:maroon;stroke-width:1;fill:none"/><rect width="10.0" height="10.0" x="12.5" y="117.5" style="stroke:maroon;stroke-width:1;fill:none"/><rect width="10.0" height="10.0" x="47.5" y="117.5" style="stroke:maroon;stroke-width:1;fill:none"/><rect width="5.0" height="5.0" x="6.25" y="76.25" style="stroke:maroon;stroke-width:1;fill:none"/><rect width="5.0" height="5.0" x="23.75" y="76.25" style="stroke:maroon;stroke-width:1;fill:none"/><rect width="5.0" height="5.0" x="6.25" y="93.75" style="stroke:maroon;stroke-width:1;fill:none"/><rect width="2.5" height="2.5" x="3.125" y="73.125" style="stroke:maroon;stroke-width:1;fill:none"/><rect width="2.5" height="2.5" x="11.875" y="73.125" style="stroke:maroon;stroke-width:1;fill:none"/><rect width="2.5" height="2.5" x="3.125" y="81.875" style="stroke:maroon;stroke-width:1;fill:none"/><rect width="2.5" height="2.5" x="20.625" y="73.125" style="stroke:maroon;stroke-width:1;fill:none"/><rect width="2.5" height="2.5" x="29.375" y="73.125" style="stroke:maroon;stroke-width:1;fill:none"/><rect width="2.5" height="2.5" x="29.375" y="81.875" style="stroke:maroon;stroke-width:1;fill:none"/><rect width="2.5" height="2.5" x="3.125" y="90.625" style="stroke:maroon;stroke-width:1;fill:none"/><rect width="2.5" height="2.5" x="3.125" y="99.375" style="stroke:maroon;stroke-width:1;fill:none"/><rect width="2.5" height="2.5" x="11.875" y="99.375" style="stroke:maroon;stroke-width:1;fill:none"/><rect width="5.0" height="5.0" x="6.25" y="111.25" style="stroke:maroon;stroke-width:1;fill:none"/><rect width="5.0" height="5.0" x="6.25" y="128.75" style="stroke:maroon;stroke-width:1;fill:none"/><rect width="5.0" height="5.0" x="23.75" y="128.75" style="stroke:maroon;stroke-width:1;fill:none"/><rect width="2.5" height="2.5" x="3.125" y="108.125" style="stroke:maroon;stroke-width:1;fill:none"/><rect width="2.5" height="2.5" x="11.875" y="108.125" style="stroke:maroon;stroke-width:1;fill:none"/><rect width="2.5" height="2.5" x="3.125" y="116.875" style="stroke:maroon;stroke-width:1;fill:none"/><rect width="2.5" height="2.5" x="3.125" y="125.625" style="stroke:maroon;stroke-width:1;fill:none"/><rect width="2.5" height="2.5" x="3.125" y="134.375" style="stroke:maroon;stroke-width:1;fill:none"/><rect width="2.5" height="2.5" x="11.875" y="134.375" style="stroke:maroon;stroke-width:1;fill:none"/><rect width="2.5" height="2.5" x="29.375" y="125.625" style="stroke:maroon;stroke-width:1;fill:none"/><rect width="2.5" height="2.5" x="20.625" y="134.375" style="stroke:maroon;stroke-width:1;fill:none"/><rect width="2.5" height="2.5" x="29.375" y="134.375" style="stroke:maroon;stroke-width:1;fill:none"/><rect width="5.0" height="5.0" x="58.75" y="111.25" style="stroke:maroon;stroke-width:1;fill:none"/><rect width="5.0" height="5.0" x="41.25" y="128.75" style="stroke:maroon;stroke-width:1;fill:none"/><rect width="5.0" height="5.0" x="58.75" y="128.75" style="stroke:maroon;stroke-width:1;fill:none"/><rect width="2.5" height="2.5" x="55.625" y="108.125" style="stroke:maroon;stroke-width:1;fill:none"/><rect width="2.5" height="2.5" x="64.375" y="108.125" style="stroke:maroon;stroke-width:1;fill:none"/><rect width="2.5" height="2.5" x="64.375" y="116.875" style="stroke:maroon;stroke-width:1;fill:none"/><rect width="2.5" height="2.5" x="38.125" y="125.625" style="stroke:maroon;stroke-width:1;fill:none"/><rect width="2.5" height="2.5" x="38.125" y="134.375" style="stroke:maroon;stroke-width:1;fill:none"/><rect width="2.5" height="2.5" x="46.875" y="134.375" style="stroke:maroon;stroke-width:1;fill:none"/><rect width="2.5" height="2.5" x="64.375" y="125.625" style="stroke:maroon;stroke-width:1;fill:none"/><rect width="2.5" height="2.5" x="55.625" y="134.375" style="stroke:maroon;stroke-width:1;fill:none"/><rect width="2.5" height="2.5" x="64.375" y="134.375" style="stroke:maroon;stroke-width:1;fill:none"/><rect width="20.0" height="20.0" x="165.0" y="25.0" style="stroke:maroon;stroke-width:1;fill:none"/><rect width="20.0" height="20.0" x="235.0" y="25.0" style="stroke:maroon;stroke-width:1;fill:none"/><rect width="20.0" height="20.0" x="235.0" y="95.0" style="stroke:maroon;stroke-width:1;fill:none"/><rect width="10.0" height="10.0" x="152.5" y="12.5" style="stroke:maroon;stroke-width:1;fill:none"/><rect width="10.0" height="10.0" x="187.5" y="12.5" style="stroke:maroon;stroke-width:1;fill:none"/><rect width="10.0" height="10.0" x="152.5" y="47.5" style="stroke:maroon;stroke-width:1;fill:none"/><rect width="5.0" height="5.0" x="146.25" y="6.25" style="stroke:maroon;stroke-width:1;fill:none"/><rect width="5.0" height="5.0" x="163.75" y="6.25" style="stroke:maroon;stroke-width:1;fill:none"/><rect width="5.0" height="5.0" x="146.25" y="23.75" style="stroke:maroon;stroke-width:1;fill:none"/><rect width="2.5" height="2.5" x="143.125" y="3.125" style="stroke:maroon;stroke-width:1;fill:none"/><rect width="2.5" height="2.5" x="151.875" y="3.125" style="stroke:maroon;stroke-width:1;fill:none"/><rect width="2.5" height="2.5" x="143.125" y="11.875" style="stroke:maroon;stroke-width:1;fill:none"/><rect width="2.5" height="2.5" x="160.625" y="3.125" style="stroke:maroon;stroke-width:1;fill:none"/><rect width="2.5" height="2.5" x="169.375" y="3.125" style="stroke:maroon;stroke-width:1;fill:none"/><rect width="2.5" height="2.5" x="169.375" y="11.875" style="stroke:maroon;stroke-width:1;fill:none"/><rect width="2.5" height="2.5" x="143.125" y="20.625" style="stroke:maroon;stroke-width:1;fill:none"/><rect width="2.5" height="2.5" x="143.125" y="29.375" style="stroke:maroon;stroke-width:1;fill:none"/><rect width="2.5" height="2.5" x="151.875" y="29.375" style="stroke:maroon;stroke-width:1;fill:none"/><rect width="5.0" height="5.0" x="181.25" y="6.25" style="stroke:maroon;stroke-width:1;fill:none"/><rect width="5.0" height="5.0" x="198.75" y="6.25" style="stroke:maroon;stroke-width:1;fill:none"/><rect width="5.0" height="5.0" x="198.75" y="23.75" style="stroke:maroon;stroke-width:1;fill:none"/><rect width="2.5" height="2.5" x="178.125" y="3.125" style="stroke:maroon;stroke-width:1;fill:none"/><rect width="2.5" height="2.5" x="186.875" y="3.125" style="stroke:maroon;stroke-width:1;fill:none"/><rect width="2.5" height="2.5" x="178.125" y="11.875" style="stroke:maroon;stroke-width:1;fill:none"/><rect width="2.5" height="2.5" x="195.625" y="3.125" style="stroke:maroon;stroke-width:1;fill:none"/><rect width="2.5" height="2.5" x="204.375" y="3.125" style="stroke:maroon;stroke-width:1;fill:none"/><rect width="2.5" height="2.5" x="204.375" y="11.875" style="stroke:maroon;stroke-width:1;fill:none"/><rect width="2.5" height="2.5" x="204.375" y="20.625" style="stroke:maroon;stroke-width:1;fill:none"/><rect width="2.5" height="2.5" x="195.625" y="29.375" style="stroke:maroon;stroke-width:1;fill:none"/><rect width="2.5" height="2.5" x="204.375" y="29.375" style="stroke:maroon;stroke-width:1;fill:none"/><rect width="5.0" height="5.0" x="146.25" y="41.25" style="stroke:maroon;stroke-width:1;fill:none"/><rect width="5.0" height="5.0" x="146.25" y="58.75" style="stroke:maroon;stroke-width:1;fill:none"/><rect width="5.0" height="5.0" x="163.75" y="58.75" style="stroke:maroon;stroke-width:1;fill:none"/><rect width="2.5" height="2.5" x="143.125" y="38.125" style="stroke:maroon;stroke-width:1;fill:none"/><rect width="2.5" height="2.5" x="151.875" y="38.125" style="stroke:maroon;stroke-width:1;fill:none"/><rect width="2.5" height="2.5" x="143.125" y="46.875" style="stroke:maroon;stroke-width:1;fill:none"/><rect width="2.5" height="2.5" x="143.125" y="55.625" style="stroke:maroon;stroke-width:1;fill:none"/><rect width="2.5" height="2.5" x="143.125" y="64.375" style="stroke:maroon;stroke-width:1;fill:none"/><rect width="2.5" height="2.5" x="151.875" y="64.375" style="stroke:maroon;stroke-width:1;fill:none"/><rect width="2.5" height="2.5" x="169.375" y="55.625" style="stroke:maroon;stroke-width:1;fill:none"/><rect width="2.5" height="2.5" x="160.625" y="64.375" style="stroke:maroon;stroke-width:1;fill:none"/><rect width="2.5" height="2.5" x="169.375" y="64.375" style="stroke:maroon;stroke-width:1;fill:none"/><rect width="10.0" height="10.0" x="222.5" y="12.5" style="stroke:maroon;stroke-width:1;fill:none"/><rect width="10.0" height="10.0" x="257.5" y="12.5" style="stroke:maroon;stroke-width:1;fill:none"/><rect width="10.0" height="10.0" x="257.5" y="47.5" style="stroke:maroon;stroke-width:1;fill:none"/><rect width="5.0" height="5.0" x="216.25" y="6.25" style="stroke:maroon;stroke-width:1;fill:none"/><rect width="5.0" height="5.0" x="233.75" y="6.25" style="stroke:maroon;stroke-width:1;fill:none"/><rect width="5.0" height="5.0" x="216.25" y="23.75" style="stroke:maroon;stroke-width:1;fill:none"/><rect width="2.5" height="2.5" x="213.125" y="3.125" style="stroke:maroon;stroke-width:1;fill:none"/><rect width="2.5" height="2.5" x="221.875" y="3.125" style="stroke:maroon;stroke-width:1;fill:none"/><rect width="2.5" height="2.5" x="213.125" y="11.875" style="stroke:maroon;stroke-width:1;fill:none"/><rect width="2.5" height="2.5" x="230.625" y="3.125" style="stroke:maroon;stroke-width:1;fill:none"/><rect width="2.5" height="2.5" x="239.375" y="3.125" style="stroke:maroon;stroke-width:1;fill:none"/><rect width="2.5" height="2.5" x="239.375" y="11.875" style="stroke:maroon;stroke-width:1;fill:none"/><rect width="2.5" height="2.5" x="213.125" y="20.625" style="stroke:maroon;stroke-width:1;fill:none"/><rect width="2.5" height="2.5" x="213.125" y="29.375" style="stroke:maroon;stroke-width:1;fill:none"/><rect width="2.5" height="2.5" x="221.875" y="29.375" style="stroke:maroon;stroke-width:1;fill:none"/><rect width="5.0" height="5.0" x="251.25" y="6.25" style="stroke:maroon;stroke-width:1;fill:none"/><rect width="5.0" height="5.0" x="268.75" y="6.25" style="stroke:maroon;stroke-width:1;fill:none"/><rect width="5.0" height="5.0" x="268.75" y="23.75" style="stroke:maroon;stroke-width:1;fill:none"/><rect width="2.5" height="2.5" x="248.125" y="3.125" style="stroke:maroon;stroke-width:1;fill:none"/><rect width="2.5" height="2.5" x="256.875" y="3.125" style="stroke:maroon;stroke-width:1;fill:none"/><rect width="2.5" height="2.5" x="248.125" y="11.875" style="stroke:maroon;stroke-width:1;fill:none"/><rect width="2.5" height="2.5" x="265.625" y="3.125" style="stroke:maroon;stroke-width:1;fill:none"/><rect width="2.5" height="2.5" x="274.375" y="3.125" style="stroke:maroon;stroke-width:1;fill:none"/><rect width="2.5" height="2.5" x="274.375" y="11.875" style="stroke:maroon;stroke-width:1;fill:none"/><rect width="2.5" height="2.5" x="274.375" y="20.625" style="stroke:maroon;stroke-width:1;fill:none"/><rect width="2.5" height="2.5" x="265.625" y="29.375" style="stroke:maroon;stroke-width:1;fill:none"/><rect width="2.5" height="2.5" x="274.375" y="29.375" style="stroke:maroon;stroke-width:1;fill:none"/><rect width="5.0" height="5.0" x="268.75" y="41.25" style="stroke:maroon;stroke-width:1;fill:none"/><rect width="5.0" height="5.0" x="251.25" y="58.75" style="stroke:maroon;stroke-width:1;fill:none"/><rect width="5.0" height="5.0" x="268.75" y="58.75" style="stroke:maroon;stroke-width:1;fill:none"/><rect width="2.5" height="2.5" x="265.625" y="38.125" style="stroke:maroon;stroke-width:1;fill:none"/><rect width="2.5" height="2.5" x="274.375" y="38.125" style="stroke:maroon;stroke-width:1;fill:none"/><rect width="2.5" height="2.5" x="274.375" y="46.875" style="stroke:maroon;stroke-width:1;fill:none"/><rect width="2.5" height="2.5" x="248.125" y="55.625" style="stroke:maroon;stroke-width:1;fill:none"/><rect width="2.5" height="2.5" x="248.125" y="64.375" style="stroke:maroon;stroke-width:1;fill:none"/><rect width="2.5" height="2.5" x="256.875" y="64.375" style="stroke:maroon;stroke-width:1;fill:none"/><rect width="2.5" height="2.5" x="274.375" y="55.625" style="stroke:maroon;stroke-width:1;fill:none"/><rect width="2.5" height="2.5" x="265.625" y="64.375" style="stroke:maroon;stroke-width:1;fill:none"/><rect width="2.5" height="2.5" x="274.375" y="64.375" style="stroke:maroon;stroke-width:1;fill:none"/><rect width="10.0" height="10.0" x="257.5" y="82.5" style="stroke:maroon;stroke-width:1;fill:none"/><rect width="10.0" height="10.0" x="222.5" y="117.5" style="stroke:maroon;stroke-width:1;fill:none"/><rect width="10.0" height="10.0" x="257.5" y="117.5" style="stroke:maroon;stroke-width:1;fill:none"/><rect width="5.0" height="5.0" x="251.25" y="76.25" style="stroke:maroon;stroke-width:1;fill:none"/><rect width="5.0" height="5.0" x="268.75" y="76.25" style="stroke:maroon;stroke-width:1;fill:none"/><rect width="5.0" height="5.0" x="268.75" y="93.75" style="stroke:maroon;stroke-width:1;fill:none"/><rect width="2.5" height="2.5" x="248.125" y="73.125" style="stroke:maroon;stroke-width:1;fill:none"/><rect width="2.5" height="2.5" x="256.875" y="73.125" style="stroke:maroon;stroke-width:1;fill:none"/><rect width="2.5" height="2.5" x="248.125" y="81.875" style="stroke:maroon;stroke-width:1;fill:none"/><rect width="2.5" height="2.5" x="265.625" y="73.125" style="stroke:maroon;stroke-width:1;fill:none"/><rect width="2.5" height="2.5" x="274.375" y="73.125" style="stroke:maroon;stroke-width:1;fill:none"/><rect width="2.5" height="2.5" x="274.375" y="81.875" style="stroke:maroon;stroke-width:1;fill:none"/><rect width="2.5" height="2.5" x="274.375" y="90.625" style="stroke:maroon;stroke-width:1;fill:none"/><rect width="2.5" height="2.5" x="265.625" y="99.375" style="stroke:maroon;stroke-width:1;fill:none"/><rect width="2.5" height="2.5" x="274.375" y="99.375" style="stroke:maroon;stroke-width:1;fill:none"/><rect width="5.0" height="5.0" x="216.25" y="111.25" style="stroke:maroon;stroke-width:1;fill:none"/><rect width="5.0" height="5.0" x="216.25" y="128.75" style="stroke:maroon;stroke-width:1;fill:none"/><rect width="5.0" height="5.0" x="233.75" y="128.75" style="stroke:maroon;stroke-width:1;fill:none"/><rect width="2.5" height="2.5" x="213.125" y="108.125" style="stroke:maroon;stroke-width:1;fill:none"/><rect width="2.5" height="2.5" x="221.875" y="108.125" style="stroke:maroon;stroke-width:1;fill:none"/><rect width="2.5" height="2.5" x="213.125" y="116.875" style="stroke:maroon;stroke-width:1;fill:none"/><rect width="2.5" height="2.5" x="213.125" y="125.625" style="stroke:maroon;stroke-width:1;fill:none"/><rect width="2.5" height="2.5" x="213.125" y="134.375" style="stroke:maroon;stroke-width:1;fill:none"/><rect width="2.5" height="2.5" x="221.875" y="134.375" style="stroke:maroon;stroke-width:1;fill:none"/><rect width="2.5" height="2.5" x="239.375" y="125.625" style="stroke:maroon;stroke-width:1;fill:none"/><rect width="2.5" height="2.5" x="230.625" y="134.375" style="stroke:maroon;stroke-width:1;fill:none"/><rect width="2.5" height="2.5" x="239.375" y="134.375" style="stroke:maroon;stroke-width:1;fill:none"/><rect width="5.0" height="5.0" x="268.75" y="111.25" style="stroke:maroon;stroke-width:1;fill:none"/><rect width="5.0" height="5.0" x="251.25" y="128.75" style="stroke:maroon;stroke-width:1;fill:none"/><rect width="5.0" height="5.0" x="268.75" y="128.75" style="stroke:maroon;stroke-width:1;fill:none"/><rect width="2.5" height="2.5" x="265.625" y="108.125" style="stroke:maroon;stroke-width:1;fill:none"/><rect width="2.5" height="2.5" x="274.375" y="108.125" style="stroke:maroon;stroke-width:1;fill:none"/><rect width="2.5" height="2.5" x="274.375" y="116.875" style="stroke:maroon;stroke-width:1;fill:none"/><rect width="2.5" height="2.5" x="248.125" y="125.625" style="stroke:maroon;stroke-width:1;fill:none"/><rect width="2.5" height="2.5" x="248.125" y="134.375" style="stroke:maroon;stroke-width:1;fill:none"/><rect width="2.5" height="2.5" x="256.875" y="134.375" style="stroke:maroon;stroke-width:1;fill:none"/><rect width="2.5" height="2.5" x="274.375" y="125.625" style="stroke:maroon;stroke-width:1;fill:none"/><rect width="2.5" height="2.5" x="265.625" y="134.375" style="stroke:maroon;stroke-width:1;fill:none"/><rect width="2.5" height="2.5" x="274.375" y="134.375" style="stroke:maroon;stroke-width:1;fill:none"/><rect width="20.0" height="20.0" x="25.0" y="165.0" style="stroke:maroon;stroke-width:1;fill:none"/><rect width="20.0" height="20.0" x="25.0" y="235.0" style="stroke:maroon;stroke-width:1;fill:none"/><rect width="20.0" height="20.0" x="95.0" y="235.0" style="stroke:maroon;stroke-width:1;fill:none"/><rect width="10.0" height="10.0" x="12.5" y="152.5" style="stroke:maroon;stroke-width:1;fill:none"/><rect width="10.0" height="10.0" x="47.5" y="152.5" style="stroke:maroon;stroke-width:1;fill:none"/><rect width="10.0" height="10.0" x="12.5" y="187.5" style="stroke:maroon;stroke-width:1;fill:none"/><rect width="5.0" height="5.0" x="6.25" y="146.25" style="stroke:maroon;stroke-width:1;fill:none"/><rect width="5.0" height="5.0" x="23.75" y="146.25" style="stroke:maroon;stroke-width:1;fill:none"/><rect width="5.0" height="5.0" x="6.25" y="163.75" style="stroke:maroon;stroke-width:1;fill:none"/><rect width="2.5" height="2.5" x="3.125" y="143.125" style="stroke:maroon;stroke-width:1;fill:none"/><rect width="2.5" height="2.5" x="11.875" y="143.125" style="stroke:maroon;stroke-width:1;fill:none"/><rect width="2.5" height="2.5" x="3.125" y="151.875" style="stroke:maroon;stroke-width:1;fill:none"/><rect width="2.5" height="2.5" x="20.625" y="143.125" style="stroke:maroon;stroke-width:1;fill:none"/><rect width="2.5" height="2.5" x="29.375" y="143.125" style="stroke:maroon;stroke-width:1;fill:none"/><rect width="2.5" height="2.5" x="29.375" y="151.875" style="stroke:maroon;stroke-width:1;fill:none"/><rect width="2.5" height="2.5" x="3.125" y="160.625" style="stroke:maroon;stroke-width:1;fill:none"/><rect width="2.5" height="2.5" x="3.125" y="169.375" style="stroke:maroon;stroke-width:1;fill:none"/><rect width="2.5" height="2.5" x="11.875" y="169.375" style="stroke:maroon;stroke-width:1;fill:none"/><rect width="5.0" height="5.0" x="41.25" y="146.25" style="stroke:maroon;stroke-width:1;fill:none"/><rect width="5.0" height="5.0" x="58.75" y="146.25" style="stroke:maroon;stroke-width:1;fill:none"/><rect width="5.0" height="5.0" x="58.75" y="163.75" style="stroke:maroon;stroke-width:1;fill:none"/><rect width="2.5" height="2.5" x="38.125" y="143.125" style="stroke:maroon;stroke-width:1;fill:none"/><rect width="2.5" height="2.5" x="46.875" y="143.125" style="stroke:maroon;stroke-width:1;fill:none"/><rect width="2.5" height="2.5" x="38.125" y="151.875" style="stroke:maroon;stroke-width:1;fill:none"/><rect width="2.5" height="2.5" x="55.625" y="143.125" style="stroke:maroon;stroke-width:1;fill:none"/><rect width="2.5" height="2.5" x="64.375" y="143.125" style="stroke:maroon;stroke-width:1;fill:none"/><rect width="2.5" height="2.5" x="64.375" y="151.875" style="stroke:maroon;stroke-width:1;fill:none"/><rect width="2.5" height="2.5" x="64.375" y="160.625" style="stroke:maroon;stroke-width:1;fill:none"/><rect width="2.5" height="2.5" x="55.625" y="169.375" style="stroke:maroon;stroke-width:1;fill:none"/><rect width="2.5" height="2.5" x="64.375" y="169.375" style="stroke:maroon;stroke-width:1;fill:none"/><rect width="5.0" height="5.0" x="6.25" y="181.25" style="stroke:maroon;stroke-width:1;fill:none"/><rect width="5.0" height="5.0" x="6.25" y="198.75" style="stroke:maroon;stroke-width:1;fill:none"/><rect width="5.0" height="5.0" x="23.75" y="198.75" style="stroke:maroon;stroke-width:1;fill:none"/><rect width="2.5" height="2.5" x="3.125" y="178.125" style="stroke:maroon;stroke-width:1;fill:none"/><rect width="2.5" height="2.5" x="11.875" y="178.125" style="stroke:maroon;stroke-width:1;fill:none"/><rect width="2.5" height="2.5" x="3.125" y="186.875" style="stroke:maroon;stroke-width:1;fill:none"/><rect width="2.5" height="2.5" x="3.125" y="195.625" style="stroke:maroon;stroke-width:1;fill:none"/><rect width="2.5" height="2.5" x="3.125" y="204.375" style="stroke:maroon;stroke-width:1;fill:none"/><rect width="2.5" height="2.5" x="11.875" y="204.375" style="stroke:maroon;stroke-width:1;fill:none"/><rect width="2.5" height="2.5" x="29.375" y="195.625" style="stroke:maroon;stroke-width:1;fill:none"/><rect width="2.5" height="2.5" x="20.625" y="204.375" style="stroke:maroon;stroke-width:1;fill:none"/><rect width="2.5" height="2.5" x="29.375" y="204.375" style="stroke:maroon;stroke-width:1;fill:none"/><rect width="10.0" height="10.0" x="12.5" y="222.5" style="stroke:maroon;stroke-width:1;fill:none"/><rect width="10.0" height="10.0" x="12.5" y="257.5" style="stroke:maroon;stroke-width:1;fill:none"/><rect width="10.0" height="10.0" x="47.5" y="257.5" style="stroke:maroon;stroke-width:1;fill:none"/><rect width="5.0" height="5.0" x="6.25" y="216.25" style="stroke:maroon;stroke-width:1;fill:none"/><rect width="5.0" height="5.0" x="23.75" y="216.25" style="stroke:maroon;stroke-width:1;fill:none"/><rect width="5.0" height="5.0" x="6.25" y="233.75" style="stroke:maroon;stroke-width:1;fill:none"/><rect width="2.5" height="2.5" x="3.125" y="213.125" style="stroke:maroon;stroke-width:1;fill:none"/><rect width="2.5" height="2.5" x="11.875" y="213.125" style="stroke:maroon;stroke-width:1;fill:none"/><rect width="2.5" height="2.5" x="3.125" y="221.875" style="stroke:maroon;stroke-width:1;fill:none"/><rect width="2.5" height="2.5" x="20.625" y="213.125" style="stroke:maroon;stroke-width:1;fill:none"/><rect width="2.5" height="2.5" x="29.375" y="213.125" style="stroke:maroon;stroke-width:1;fill:none"/><rect width="2.5" height="2.5" x="29.375" y="221.875" style="stroke:maroon;stroke-width:1;fill:none"/><rect width="2.5" height="2.5" x="3.125" y="230.625" style="stroke:maroon;stroke-width:1;fill:none"/><rect width="2.5" height="2.5" x="3.125" y="239.375" style="stroke:maroon;stroke-width:1;fill:none"/><rect width="2.5" height="2.5" x="11.875" y="239.375" style="stroke:maroon;stroke-width:1;fill:none"/><rect width="5.0" height="5.0" x="6.25" y="251.25" style="stroke:maroon;stroke-width:1;fill:none"/><rect width="5.0" height="5.0" x="6.25" y="268.75" style="stroke:maroon;stroke-width:1;fill:none"/><rect width="5.0" height="5.0" x="23.75" y="268.75" style="stroke:maroon;stroke-width:1;fill:none"/><rect width="2.5" height="2.5" x="3.125" y="248.125" style="stroke:maroon;stroke-width:1;fill:none"/><rect width="2.5" height="2.5" x="11.875" y="248.125" style="stroke:maroon;stroke-width:1;fill:none"/><rect width="2.5" height="2.5" x="3.125" y="256.875" style="stroke:maroon;stroke-width:1;fill:none"/><rect width="2.5" height="2.5" x="3.125" y="265.625" style="stroke:maroon;stroke-width:1;fill:none"/><rect width="2.5" height="2.5" x="3.125" y="274.375" style="stroke:maroon;stroke-width:1;fill:none"/><rect width="2.5" height="2.5" x="11.875" y="274.375" style="stroke:maroon;stroke-width:1;fill:none"/><rect width="2.5" height="2.5" x="29.375" y="265.625" style="stroke:maroon;stroke-width:1;fill:none"/><rect width="2.5" height="2.5" x="20.625" y="274.375" style="stroke:maroon;stroke-width:1;fill:none"/><rect width="2.5" height="2.5" x="29.375" y="274.375" style="stroke:maroon;stroke-width:1;fill:none"/><rect width="5.0" height="5.0" x="58.75" y="251.25" style="stroke:maroon;stroke-width:1;fill:none"/><rect width="5.0" height="5.0" x="41.25" y="268.75" style="stroke:maroon;stroke-width:1;fill:none"/><rect width="5.0" height="5.0" x="58.75" y="268.75" style="stroke:maroon;stroke-width:1;fill:none"/><rect width="2.5" height="2.5" x="55.625" y="248.125" style="stroke:maroon;stroke-width:1;fill:none"/><rect width="2.5" height="2.5" x="64.375" y="248.125" style="stroke:maroon;stroke-width:1;fill:none"/><rect width="2.5" height="2.5" x="64.375" y="256.875" style="stroke:maroon;stroke-width:1;fill:none"/><rect width="2.5" height="2.5" x="38.125" y="265.625" style="stroke:maroon;stroke-width:1;fill:none"/><rect width="2.5" height="2.5" x="38.125" y="274.375" style="stroke:maroon;stroke-width:1;fill:none"/><rect width="2.5" height="2.5" x="46.875" y="274.375" style="stroke:maroon;stroke-width:1;fill:none"/><rect width="2.5" height="2.5" x="64.375" y="265.625" style="stroke:maroon;stroke-width:1;fill:none"/><rect width="2.5" height="2.5" x="55.625" y="274.375" style="stroke:maroon;stroke-width:1;fill:none"/><rect width="2.5" height="2.5" x="64.375" y="274.375" style="stroke:maroon;stroke-width:1;fill:none"/><rect width="10.0" height="10.0" x="117.5" y="222.5" style="stroke:maroon;stroke-width:1;fill:none"/><rect width="10.0" height="10.0" x="82.5" y="257.5" style="stroke:maroon;stroke-width:1;fill:none"/><rect width="10.0" height="10.0" x="117.5" y="257.5" style="stroke:maroon;stroke-width:1;fill:none"/><rect width="5.0" height="5.0" x="111.25" y="216.25" style="stroke:maroon;stroke-width:1;fill:none"/><rect width="5.0" height="5.0" x="128.75" y="216.25" style="stroke:maroon;stroke-width:1;fill:none"/><rect width="5.0" height="5.0" x="128.75" y="233.75" style="stroke:maroon;stroke-width:1;fill:none"/><rect width="2.5" height="2.5" x="108.125" y="213.125" style="stroke:maroon;stroke-width:1;fill:none"/><rect width="2.5" height="2.5" x="116.875" y="213.125" style="stroke:maroon;stroke-width:1;fill:none"/><rect width="2.5" height="2.5" x="108.125" y="221.875" style="stroke:maroon;stroke-width:1;fill:none"/><rect width="2.5" height="2.5" x="125.625" y="213.125" style="stroke:maroon;stroke-width:1;fill:none"/><rect width="2.5" height="2.5" x="134.375" y="213.125" style="stroke:maroon;stroke-width:1;fill:none"/><rect width="2.5" height="2.5" x="134.375" y="221.875" style="stroke:maroon;stroke-width:1;fill:none"/><rect width="2.5" height="2.5" x="134.375" y="230.625" style="stroke:maroon;stroke-width:1;fill:none"/><rect width="2.5" height="2.5" x="125.625" y="239.375" style="stroke:maroon;stroke-width:1;fill:none"/><rect width="2.5" height="2.5" x="134.375" y="239.375" style="stroke:maroon;stroke-width:1;fill:none"/><rect width="5.0" height="5.0" x="76.25" y="251.25" style="stroke:maroon;stroke-width:1;fill:none"/><rect width="5.0" height="5.0" x="76.25" y="268.75" style="stroke:maroon;stroke-width:1;fill:none"/><rect width="5.0" height="5.0" x="93.75" y="268.75" style="stroke:maroon;stroke-width:1;fill:none"/><rect width="2.5" height="2.5" x="73.125" y="248.125" style="stroke:maroon;stroke-width:1;fill:none"/><rect width="2.5" height="2.5" x="81.875" y="248.125" style="stroke:maroon;stroke-width:1;fill:none"/><rect width="2.5" height="2.5" x="73.125" y="256.875" style="stroke:maroon;stroke-width:1;fill:none"/><rect width="2.5" height="2.5" x="73.125" y="265.625" style="stroke:maroon;stroke-width:1;fill:none"/><rect width="2.5" height="2.5" x="73.125" y="274.375" style="stroke:maroon;stroke-width:1;fill:none"/><rect width="2.5" height="2.5" x="81.875" y="274.375" style="stroke:maroon;stroke-width:1;fill:none"/><rect width="2.5" height="2.5" x="99.375" y="265.625" style="stroke:maroon;stroke-width:1;fill:none"/><rect width="2.5" height="2.5" x="90.625" y="274.375" style="stroke:maroon;stroke-width:1;fill:none"/><rect width="2.5" height="2.5" x="99.375" y="274.375" style="stroke:maroon;stroke-width:1;fill:none"/><rect width="5.0" height="5.0" x="128.75" y="251.25" style="stroke:maroon;stroke-width:1;fill:none"/><rect width="5.0" height="5.0" x="111.25" y="268.75" style="stroke:maroon;stroke-width:1;fill:none"/><rect width="5.0" height="5.0" x="128.75" y="268.75" style="stroke:maroon;stroke-width:1;fill:none"/><rect width="2.5" height="2.5" x="125.625" y="248.125" style="stroke:maroon;stroke-width:1;fill:none"/><rect width="2.5" height="2.5" x="134.375" y="248.125" style="stroke:maroon;stroke-width:1;fill:none"/><rect width="2.5" height="2.5" x="134.375" y="256.875" style="stroke:maroon;stroke-width:1;fill:none"/><rect width="2.5" height="2.5" x="108.125" y="265.625" style="stroke:maroon;stroke-width:1;fill:none"/><rect width="2.5" height="2.5" x="108.125" y="274.375" style="stroke:maroon;stroke-width:1;fill:none"/><rect width="2.5" height="2.5" x="116.875" y="274.375" style="stroke:maroon;stroke-width:1;fill:none"/><rect width="2.5" height="2.5" x="134.375" y="265.625" style="stroke:maroon;stroke-width:1;fill:none"/><rect width="2.5" height="2.5" x="125.625" y="274.375" style="stroke:maroon;stroke-width:1;fill:none"/><rect width="2.5" height="2.5" x="134.375" y="274.375" style="stroke:maroon;stroke-width:1;fill:none"/><rect width="20.0" height="20.0" x="235.0" y="165.0" style="stroke:maroon;stroke-width:1;fill:none"/><rect width="20.0" height="20.0" x="165.0" y="235.0" style="stroke:maroon;stroke-width:1;fill:none"/><rect width="20.0" height="20.0" x="235.0" y="235.0" style="stroke:maroon;stroke-width:1;fill:none"/><rect width="10.0" height="10.0" x="222.5" y="152.5" style="stroke:maroon;stroke-width:1;fill:none"/><rect width="10.0" height="10.0" x="257.5" y="152.5" style="stroke:maroon;stroke-width:1;fill:none"/><rect width="10.0" height="10.0" x="257.5" y="187.5" style="stroke:maroon;stroke-width:1;fill:none"/><rect width="5.0" height="5.0" x="216.25" y="146.25" style="stroke:maroon;stroke-width:1;fill:none"/><rect width="5.0" height="5.0" x="233.75" y="146.25" style="stroke:maroon;stroke-width:1;fill:none"/><rect width="5.0" height="5.0" x="216.25" y="163.75" style="stroke:maroon;stroke-width:1;fill:none"/><rect width="2.5" height="2.5" x="213.125" y="143.125" style="stroke:maroon;stroke-width:1;fill:none"/><rect width="2.5" height="2.5" x="221.875" y="143.125" style="stroke:maroon;stroke-width:1;fill:none"/><rect width="2.5" height="2.5" x="213.125" y="151.875" style="stroke:maroon;stroke-width:1;fill:none"/><rect width="2.5" height="2.5" x="230.625" y="143.125" style="stroke:maroon;stroke-width:1;fill:none"/><rect width="2.5" height="2.5" x="239.375" y="143.125" style="stroke:maroon;stroke-width:1;fill:none"/><rect width="2.5" height="2.5" x="239.375" y="151.875" style="stroke:maroon;stroke-width:1;fill:none"/><rect width="2.5" height="2.5" x="213.125" y="160.625" style="stroke:maroon;stroke-width:1;fill:none"/><rect width="2.5" height="2.5" x="213.125" y="169.375" style="stroke:maroon;stroke-width:1;fill:none"/><rect width="2.5" height="2.5" x="221.875" y="169.375" style="stroke:maroon;stroke-width:1;fill:none"/><rect width="5.0" height="5.0" x="251.25" y="146.25" style="stroke:maroon;stroke-width:1;fill:none"/><rect width="5.0" height="5.0" x="268.75" y="146.25" style="stroke:maroon;stroke-width:1;fill:none"/><rect width="5.0" height="5.0" x="268.75" y="163.75" style="stroke:maroon;stroke-width:1;fill:none"/><rect width="2.5" height="2.5" x="248.125" y="143.125" style="stroke:maroon;stroke-width:1;fill:none"/><rect width="2.5" height="2.5" x="256.875" y="143.125" style="stroke:maroon;stroke-width:1;fill:none"/><rect width="2.5" height="2.5" x="248.125" y="151.875" style="stroke:maroon;stroke-width:1;fill:none"/><rect width="2.5" height="2.5" x="265.625" y="143.125" style="stroke:maroon;stroke-width:1;fill:none"/><rect width="2.5" height="2.5" x="274.375" y="143.125" style="stroke:maroon;stroke-width:1;fill:none"/><rect width="2.5" height="2.5" x="274.375" y="151.875" style="stroke:maroon;stroke-width:1;fill:none"/><rect width="2.5" height="2.5" x="274.375" y="160.625" style="stroke:maroon;stroke-width:1;fill:none"/><rect width="2.5" height="2.5" x="265.625" y="169.375" style="stroke:maroon;stroke-width:1;fill:none"/><rect width="2.5" height="2.5" x="274.375" y="169.375" style="stroke:maroon;stroke-width:1;fill:none"/><rect width="5.0" height="5.0" x="268.75" y="181.25" style="stroke:maroon;stroke-width:1;fill:none"/><rect width="5.0" height="5.0" x="251.25" y="198.75" style="stroke:maroon;stroke-width:1;fill:none"/><rect width="5.0" height="5.0" x="268.75" y="198.75" style="stroke:maroon;stroke-width:1;fill:none"/><rect width="2.5" height="2.5" x="265.625" y="178.125" style="stroke:maroon;stroke-width:1;fill:none"/><rect width="2.5" height="2.5" x="274.375" y="178.125" style="stroke:maroon;stroke-width:1;fill:none"/><rect width="2.5" height="2.5" x="274.375" y="186.875" style="stroke:maroon;stroke-width:1;fill:none"/><rect width="2.5" height="2.5" x="248.125" y="195.625" style="stroke:maroon;stroke-width:1;fill:none"/><rect width="2.5" height="2.5" x="248.125" y="204.375" style="stroke:maroon;stroke-width:1;fill:none"/><rect width="2.5" height="2.5" x="256.875" y="204.375" style="stroke:maroon;stroke-width:1;fill:none"/><rect width="2.5" height="2.5" x="274.375" y="195.625" style="stroke:maroon;stroke-width:1;fill:none"/><rect width="2.5" height="2.5" x="265.625" y="204.375" style="stroke:maroon;stroke-width:1;fill:none"/><rect width="2.5" height="2.5" x="274.375" y="204.375" style="stroke:maroon;stroke-width:1;fill:none"/><rect width="10.0" height="10.0" x="152.5" y="222.5" style="stroke:maroon;stroke-width:1;fill:none"/><rect width="10.0" height="10.0" x="152.5" y="257.5" style="stroke:maroon;stroke-width:1;fill:none"/><rect width="10.0" height="10.0" x="187.5" y="257.5" style="stroke:maroon;stroke-width:1;fill:none"/><rect width="5.0" height="5.0" x="146.25" y="216.25" style="stroke:maroon;stroke-width:1;fill:none"/><rect width="5.0" height="5.0" x="163.75" y="216.25" style="stroke:maroon;stroke-width:1;fill:none"/><rect width="5.0" height="5.0" x="146.25" y="233.75" style="stroke:maroon;stroke-width:1;fill:none"/><rect width="2.5" height="2.5" x="143.125" y="213.125" style="stroke:maroon;stroke-width:1;fill:none"/><rect width="2.5" height="2.5" x="151.875" y="213.125" style="stroke:maroon;stroke-width:1;fill:none"/><rect width="2.5" height="2.5" x="143.125" y="221.875" style="stroke:maroon;stroke-width:1;fill:none"/><rect width="2.5" height="2.5" x="160.625" y="213.125" style="stroke:maroon;stroke-width:1;fill:none"/><rect width="2.5" height="2.5" x="169.375" y="213.125" style="stroke:maroon;stroke-width:1;fill:none"/><rect width="2.5" height="2.5" x="169.375" y="221.875" style="stroke:maroon;stroke-width:1;fill:none"/><rect width="2.5" height="2.5" x="143.125" y="230.625" style="stroke:maroon;stroke-width:1;fill:none"/><rect width="2.5" height="2.5" x="143.125" y="239.375" style="stroke:maroon;stroke-width:1;fill:none"/><rect width="2.5" height="2.5" x="151.875" y="239.375" style="stroke:maroon;stroke-width:1;fill:none"/><rect width="5.0" height="5.0" x="146.25" y="251.25" style="stroke:maroon;stroke-width:1;fill:none"/><rect width="5.0" height="5.0" x="146.25" y="268.75" style="stroke:maroon;stroke-width:1;fill:none"/><rect width="5.0" height="5.0" x="163.75" y="268.75" style="stroke:maroon;stroke-width:1;fill:none"/><rect width="2.5" height="2.5" x="143.125" y="248.125" style="stroke:maroon;stroke-width:1;fill:none"/><rect width="2.5" height="2.5" x="151.875" y="248.125" style="stroke:maroon;stroke-width:1;fill:none"/><rect width="2.5" height="2.5" x="143.125" y="256.875" style="stroke:maroon;stroke-width:1;fill:none"/><rect width="2.5" height="2.5" x="143.125" y="265.625" style="stroke:maroon;stroke-width:1;fill:none"/><rect width="2.5" height="2.5" x="143.125" y="274.375" style="stroke:maroon;stroke-width:1;fill:none"/><rect width="2.5" height="2.5" x="151.875" y="274.375" style="stroke:maroon;stroke-width:1;fill:none"/><rect width="2.5" height="2.5" x="169.375" y="265.625" style="stroke:maroon;stroke-width:1;fill:none"/><rect width="2.5" height="2.5" x="160.625" y="274.375" style="stroke:maroon;stroke-width:1;fill:none"/><rect width="2.5" height="2.5" x="169.375" y="274.375" style="stroke:maroon;stroke-width:1;fill:none"/><rect width="5.0" height="5.0" x="198.75" y="251.25" style="stroke:maroon;stroke-width:1;fill:none"/><rect width="5.0" height="5.0" x="181.25" y="268.75" style="stroke:maroon;stroke-width:1;fill:none"/><rect width="5.0" height="5.0" x="198.75" y="268.75" style="stroke:maroon;stroke-width:1;fill:none"/><rect width="2.5" height="2.5" x="195.625" y="248.125" style="stroke:maroon;stroke-width:1;fill:none"/><rect width="2.5" height="2.5" x="204.375" y="248.125" style="stroke:maroon;stroke-width:1;fill:none"/><rect width="2.5" height="2.5" x="204.375" y="256.875" style="stroke:maroon;stroke-width:1;fill:none"/><rect width="2.5" height="2.5" x="178.125" y="265.625" style="stroke:maroon;stroke-width:1;fill:none"/><rect width="2.5" height="2.5" x="178.125" y="274.375" style="stroke:maroon;stroke-width:1;fill:none"/><rect width="2.5" height="2.5" x="186.875" y="274.375" style="stroke:maroon;stroke-width:1;fill:none"/><rect width="2.5" height="2.5" x="204.375" y="265.625" style="stroke:maroon;stroke-width:1;fill:none"/><rect width="2.5" height="2.5" x="195.625" y="274.375" style="stroke:maroon;stroke-width:1;fill:none"/><rect width="2.5" height="2.5" x="204.375" y="274.375" style="stroke:maroon;stroke-width:1;fill:none"/><rect width="10.0" height="10.0" x="257.5" y="222.5" style="stroke:maroon;stroke-width:1;fill:none"/><rect width="10.0" height="10.0" x="222.5" y="257.5" style="stroke:maroon;stroke-width:1;fill:none"/><rect width="10.0" height="10.0" x="257.5" y="257.5" style="stroke:maroon;stroke-width:1;fill:none"/><rect width="5.0" height="5.0" x="251.25" y="216.25" style="stroke:maroon;stroke-width:1;fill:none"/><rect width="5.0" height="5.0" x="268.75" y="216.25" style="stroke:maroon;stroke-width:1;fill:none"/><rect width="5.0" height="5.0" x="268.75" y="233.75" style="stroke:maroon;stroke-width:1;fill:none"/><rect width="2.5" height="2.5" x="248.125" y="213.125" style="stroke:maroon;stroke-width:1;fill:none"/><rect width="2.5" height="2.5" x="256.875" y="213.125" style="stroke:maroon;stroke-width:1;fill:none"/><rect width="2.5" height="2.5" x="248.125" y="221.875" style="stroke:maroon;stroke-width:1;fill:none"/><rect width="2.5" height="2.5" x="265.625" y="213.125" style="stroke:maroon;stroke-width:1;fill:none"/><rect width="2.5" height="2.5" x="274.375" y="213.125" style="stroke:maroon;stroke-width:1;fill:none"/><rect width="2.5" height="2.5" x="274.375" y="221.875" style="stroke:maroon;stroke-width:1;fill:none"/><rect width="2.5" height="2.5" x="274.375" y="230.625" style="stroke:maroon;stroke-width:1;fill:none"/><rect width="2.5" height="2.5" x="265.625" y="239.375" style="stroke:maroon;stroke-width:1;fill:none"/><rect width="2.5" height="2.5" x="274.375" y="239.375" style="stroke:maroon;stroke-width:1;fill:none"/><rect width="5.0" height="5.0" x="216.25" y="251.25" style="stroke:maroon;stroke-width:1;fill:none"/><rect width="5.0" height="5.0" x="216.25" y="268.75" style="stroke:maroon;stroke-width:1;fill:none"/><rect width="5.0" height="5.0" x="233.75" y="268.75" style="stroke:maroon;stroke-width:1;fill:none"/><rect width="2.5" height="2.5" x="213.125" y="248.125" style="stroke:maroon;stroke-width:1;fill:none"/><rect width="2.5" height="2.5" x="221.875" y="248.125" style="stroke:maroon;stroke-width:1;fill:none"/><rect width="2.5" height="2.5" x="213.125" y="256.875" style="stroke:maroon;stroke-width:1;fill:none"/><rect width="2.5" height="2.5" x="213.125" y="265.625" style="stroke:maroon;stroke-width:1;fill:none"/><rect width="2.5" height="2.5" x="213.125" y="274.375" style="stroke:maroon;stroke-width:1;fill:none"/><rect width="2.5" height="2.5" x="221.875" y="274.375" style="stroke:maroon;stroke-width:1;fill:none"/><rect width="2.5" height="2.5" x="239.375" y="265.625" style="stroke:maroon;stroke-width:1;fill:none"/><rect width="2.5" height="2.5" x="230.625" y="274.375" style="stroke:maroon;stroke-width:1;fill:none"/><rect width="2.5" height="2.5" x="239.375" y="274.375" style="stroke:maroon;stroke-width:1;fill:none"/><rect width="5.0" height="5.0" x="268.75" y="251.25" style="stroke:maroon;stroke-width:1;fill:none"/><rect width="5.0" height="5.0" x="251.25" y="268.75" style="stroke:maroon;stroke-width:1;fill:none"/><rect width="5.0" height="5.0" x="268.75" y="268.75" style="stroke:maroon;stroke-width:1;fill:none"/><rect width="2.5" height="2.5" x="265.625" y="248.125" style="stroke:maroon;stroke-width:1;fill:none"/><rect width="2.5" height="2.5" x="274.375" y="248.125" style="stroke:maroon;stroke-width:1;fill:none"/><rect width="2.5" height="2.5" x="274.375" y="256.875" style="stroke:maroon;stroke-width:1;fill:none"/><rect width="2.5" height="2.5" x="248.125" y="265.625" style="stroke:maroon;stroke-width:1;fill:none"/><rect width="2.5" height="2.5" x="248.125" y="274.375" style="stroke:maroon;stroke-width:1;fill:none"/><rect width="2.5" height="2.5" x="256.875" y="274.375" style="stroke:maroon;stroke-width:1;fill:none"/><rect width="2.5" height="2.5" x="274.375" y="265.625" style="stroke:maroon;stroke-width:1;fill:none"/><rect width="2.5" height="2.5" x="265.625" y="274.375" style="stroke:maroon;stroke-width:1;fill:none"/><rect width="2.5" height="2.5" x="274.375" y="274.375" style="stroke:maroon;stroke-width:1;fill:none"/></g>
  </svg>
