<?xml version='1.0' encoding='UTF-8' standalone='no'?>
<svg version="1.1" width="280" height="280" xmlns="http://www.w3.org/2000/svg" xmlns:svg="http://www.w3.org/2000/svg">
   <g id="layer1" transform=""><g id="layer1" transform="rotate(10.0,140.0,140.0)"><circle cx="140.0" cy="140.0" r="140.0" style="stroke:purple;stroke-width:1;fill:none"/><g id="layer1" transform="rotate(20.0,70.0,140.0)"><circle cx="70.0" cy="140.0" r="70.0" style="stroke:purple;stroke-width:1;fill:none"/><g id="layer1" transform="rotate(30.0,35.0,140.0)"><circle cx="35.0" cy="140.0" r="35.0" style="stroke:purple;stroke-width:1;fill:none"/><g id="layer1" transform="rotate(40.0,17.5,140.0)"><circle cx="17.5" cy="140.0" r="17.5" style="stroke:purple;stroke-width:1;fill:none"/><g id="layer1" transform="rotate(50.0,8.75,140.0)"><circle cx="8.75" cy="140.0" r="8.75" style="stroke:purple;stroke-width:1;fill:none"/><g id="layer1" transform="rotate(60.0,4.375,140.0)"><circle cx="4.375" cy="140.0" r="4.375" style="stroke:purple;stroke-width:1;fill:none"/></g><g id="layer1" transform="rotate(60.0,13.125,140.0)"><circle cx="13.125" cy="140.0" r="4.375" style="stroke:purple;stroke-width:1;fill:none"/></g></g><g id="layer1" transform="rotate(50.0,26.25,140.0)"><circle cx="26.25" cy="140.0" r="8.75" style="stroke:purple;stroke-width:1;fill:none"/><g id="layer1" transform="rotate(60.0,21.875,140.0)"><circle cx="21.875" cy="140.0" r="4.375" style="stroke:purple;stroke-width:1;fill:none"/></g><g id="layer1" transform="rotate(60.0,30.625,140.0)"><circle cx="30.625" cy="140.0" r="4.375" style="stroke:purple;stroke-width:1;fill:none"/></g></g></g><g id="layer1" transform="rotate(40.0,52.5,140.0)"><circle cx="52.5" cy="140.0" r="17.5" style="stroke:purple;stroke-width:1;fill:none"/><g id="layer1" transform="rotate(50.0,43.75,140.0)"><circle cx="43.75" cy="140.0" r="8.75" style="stroke:purple;stroke-width:1;fill:none"/><g id="layer1" transform="rotate(60.0,39.375,140.0)"><circle cx="39.375" cy="140.0" r="4.375" style="stroke:purple;stroke-width:1;fill:none"/></g><g id="layer1" transform="rotate(60.0,48.125,140.0)"><circle cx="48.125" cy="140.0" r="4.375" style="stroke:purple;stroke-width:1;fill:none"/></g></g><g id="layer1" transform="rotate(50.0,61.25,140.0)"><circle cx="61.25" cy="140.0" r="8.75" style="stroke:purple;stroke-width:1;fill:none"/><g id="layer1" transform="rotate(60.0,56.875,140.0)"><circle cx="56.875" cy="140.0" r="4.375" style="stroke:purple;stroke-width:1;fill:none"/></g><g id="layer1" transform="rotate(60.0,65.625,140.0)"><circle cx="65.625" cy="140.0" r="4.375" style="stroke:purple;stroke-width:1;fill:none"/></g></g></g></g><g id="layer1" transform="rotate(30.0,105.0,140.0)"><circle cx="105.0" cy="140.0" r="35.0" style="stroke:purple;stroke-width:1;fill:none"/><g id="layer1" transform="rotate(40.0,87.5,140.0)"><circle cx="87.5" cy="140.0" r="17.5" style="stroke:purple;stroke-width:1;fill:none"/><g id="layer1" transform="rotate(50.0,78.75,140.0)"><circle cx="78.75" cy="140.0" r="8.75" style="stroke:purple;stroke-width:1;fill:none"/><g id="layer1" transform="rotate(60.0,74.375,140.0)"><circle cx="74.375" cy="140.0" r="4.375" style="stroke:purple;stroke-width:1;fill:none"/></g><g id="layer1" transform="rotate(60.0,83.125,140.0)"><circle cx="83.125" cy="140.0" r="4.375" style="stroke:purple;stroke-width:1;fill:none"/></g></g><g id="layer1" transform="rotate(50.0,96.25,140.0)"><circle cx="96.25" cy="140.0" r="8.75" style="stroke:purple;stroke-width:1;fill:none"/><g id="layer1" transform="rotate(60.0,91.875,140.0)"><circle cx="91.875" cy="140.0" r="4.375" style="stroke:purple;stroke-width:1;fill:none"/></g><g id="layer1" transform="rotate(60.0,100.625,140.0)"><circle cx="100.625" cy="140.0" r="4.375" style="stroke:purple;stroke-width:1;fill:none"/></g></g></g><g id="layer1" transform="rotate(40.0,122.5,140.0)"><circle cx="122.5" cy="140.0" r="17.5" style="stroke:purple;stroke-width:1;fill:none"/><g id="layer1" transform="rotate(50.0,113.75,140.0)"><circle cx="113.75" cy="140.0" r="8.75" style="stroke:purple;stroke-width:1;fill:none"/><g id="layer1" transform="rotate(60.0,109.375,140.0)"><circle cx="109.375" cy="140.0" r="4.375" style="stroke:purple;stroke-width:1;fill:none"/></g><g id="layer1" transform="rotate(60.0,118.125,140.0)"><circle cx="118.125" cy="140.0" r="4.375" style="stroke:purple;stroke-width:1;fill:none"/></g></g><g id="layer1" transform="rotate(50.0,131.25,140.0)"><circle cx="131.25" cy="140.0" r="8.75" style="stroke:purple;stroke-width:1;fill:none"/><g id="layer1" transform="rotate(60.0,126.875,140.0)"><circle cx="126.875" cy="140.0" r="4.375" style="stroke:purple;stroke-width:1;fill:none"/></g><g id="layer1" transform="rotate(60.0,135.625,140.0)"><circle cx="135.625" cy="140.0" r="4.375" style="stroke:purple;stroke-width:1;fill:none"/></g></g></g></g></g><g id="layer1" transform="rotate(20.0,210.0,140.0)"><circle cx="210.0" cy="140.0" r="70.0" style="stroke:purple;stroke-width:1;fill:none"/><g id="layer1" transform="rotate(30.0,175.0,140.0)"><circle cx="175.0" cy="140.0" r="35.0" style="stroke:purple;stroke-width:1;fill:none"/><g id="layer1" transform="rotate(40.0,157.5,140.0)"><circle cx="157.5" cy="140.0" r="17.5" style="stroke:purple;stroke-width:1;fill:none"/><g id="layer1" transform="rotate(50.0,148.75,140.0)"><circle cx="148.75" cy="140.0" r="8.75" style="stroke:purple;stroke-width:1;fill:none"/><g id="layer1" transform="rotate(60.0,144.375,140.0)"><circle cx="144.375" cy="140.0" r="4.375" style="stroke:purple;stroke-width:1;fill:none"/></g><g id="layer1" transform="rotate(60.0,153.125,140.0)"><circle cx="153.125" cy="140.0" r="4.375" style="stroke:purple;stroke-width:1;fill:none"/></g></g><g id="layer1" transform="rotate(50.0,166.25,140.0)"><circle cx="166.25" cy="140.0" r="8.75" style="stroke:purple;stroke-width:1;fill:none"/><g id="layer1" transform="rotate(60.0,161.875,140.0)"><circle cx="161.875" cy="140.0" r="4.375" style="stroke:purple;stroke-width:1;fill:none"/></g><g id="layer1" transform="rotate(60.0,170.625,140.0)"><circle cx="170.625" cy="140.0" r="4.375" style="stroke:purple;stroke-width:1;fill:none"/></g></g></g><g id="layer1" transform="rotate(40.0,192.5,140.0)"><circle cx="192.5" cy="140.0" r="17.5" style="stroke:purple;stroke-width:1;fill:none"/><g id="layer1" transform="rotate(50.0,183.75,140.0)"><circle cx="183.75" cy="140.0" r="8.75" style="stroke:purple;stroke-width:1;fill:none"/><g id="layer1" transform="rotate(60.0,179.375,140.0)"><circle cx="179.375" cy="140.0" r="4.375" style="stroke:purple;stroke-width:1;fill:none"/></g><g id="layer1" transform="rotate(60.0,188.125,140.0)"><circle cx="188.125" cy="140.0" r="4.375" style="stroke:purple;stroke-width:1;fill:none"/></g></g><g id="layer1" transform="rotate(50.0,201.25,140.0)"><circle cx="201.25" cy="140.0" r="8.75" style="stroke:purple;stroke-width:1;fill:none"/><g id="layer1" transform="rotate(60.0,196.875,140.0)"><circle cx="196.875" cy="140.0" r="4.375" style="stroke:purple;stroke-width:1;fill:none"/></g><g id="layer1" transform="rotate(60.0,205.625,140.0)"><circle cx="205.625" cy="140.0" r="4.375" style="stroke:purple;stroke-width:1;fill:none"/></g></g></g></g><g id="layer1" transform="rotate(30.0,245.0,140.0)"><circle cx="245.0" cy="140.0" r="35.0" style="stroke:purple;stroke-width:1;fill:none"/><g id="layer1" transform="rotate(40.0,227.5,140.0)"><circle cx="227.5" cy="140.0" r="17.5" style="stroke:purple;stroke-width:1;fill:none"/><g id="layer1" transform="rotate(50.0,218.75,140.0)"><circle cx="218.75" cy="140.0" r="8.75" style="stroke:purple;stroke-width:1;fill:none"/><g id="layer1" transform="rotate(60.0,214.375,140.0)"><circle cx="214.375" cy="140.0" r="4.375" style="stroke:purple;stroke-width:1;fill:none"/></g><g id="layer1" transform="rotate(60.0,223.125,140.0)"><circle cx="223.125" cy="140.0" r="4.375" style="stroke:purple;stroke-width:1;fill:none"/></g></g><g id="layer1" transform="rotate(50.0,236.25,140.0)"><circle cx="236.25" cy="140.0" r="8.75" style="stroke:purple;stroke-width:1;fill:none"/><g id="layer1" transform="rotate(60.0,231.875,140.0)"><circle cx="231.875" cy="140.0" r="4.375" style="stroke:purple;stroke-width:1;fill:none"/></g><g id="layer1" transform="rotate(60.0,240.625,140.0)"><circle cx="240.625" cy="140.0" r="4.375" style="stroke:purple;stroke-width:1;fill:none"/></g></g></g><g id="layer1" transform="rotate(40.0,262.5,140.0)"><circle cx="262.5" cy="140.0" r="17.5" style="stroke:purple;stroke-width:1;fill:none"/><g id="layer1" transform="rotate(50.0,253.75,140.0)"><circle cx="253.75" cy="140.0" r="8.75" style="stroke:purple;stroke-width:1;fill:none"/><g id="layer1" transform="rotate(60.0,249.375,140.0)"><circle cx="249.375" cy="140.0" r="4.375" style="stroke:purple;stroke-width:1;fill:none"/></g><g id="layer1" transform="rotate(60.0,258.125,140.0)"><circle cx="258.125" cy="140.0" r="4.375" style="stroke:purple;stroke-width:1;fill:none"/></g></g><g id="layer1" transform="rotate(50.0,271.25,140.0)"><circle cx="271.25" cy="140.0" r="8.75" style="stroke:purple;stroke-width:1;fill:none"/><g id="layer1" transform="rotate(60.0,266.875,140.0)"><circle cx="266.875" cy="140.0" r="4.375" style="stroke:purple;stroke-width:1;fill:none"/></g><g id="layer1" transform="rotate(60.0,275.625,140.0)"><circle cx="275.625" cy="140.0" r="4.375" style="stroke:purple;stroke-width:1;fill:none"/></g></g></g></g></g></g></g>
  </svg>
