<?xml version='1.0' encoding='UTF-8' standalone='no'?>
<svg version="1.1" width="140" height="140" xmlns="http://www.w3.org/2000/svg" xmlns:svg="http://www.w3.org/2000/svg">
   <g id="layer1"><rect width="12" height="12" x="64.0" y="114.0" style="stroke:blue;stroke-width:1;fill:none"/><rect width="12" height="12" x="83.13417161825448" y="110.19397662556435" style="stroke:blue;stroke-width:1;fill:none"/><rect width="12" height="12" x="99.35533905932738" y="99.35533905932738" style="stroke:blue;stroke-width:1;fill:none"/><rect width="12" height="12" x="110.19397662556435" y="83.1341716182545" style="stroke:blue;stroke-width:1;fill:none"/><rect width="12" height="12" x="114.0" y="64.0" style="stroke:blue;stroke-width:1;fill:none"/><rect width="12" height="12" x="110.19397662556435" y="44.865828381745516" style="stroke:blue;stroke-width:1;fill:none"/><rect width="12" height="12" x="99.35533905932738" y="28.64466094067263" style="stroke:blue;stroke-width:1;fill:none"/><rect width="12" height="12" x="83.1341716182545" y="17.80602337443566" style="stroke:blue;stroke-width:1;fill:none"/><rect width="12" height="12" x="64.0" y="14.0" style="stroke:blue;stroke-width:1;fill:none"/><rect width="12" height="12" x="44.865828381745516" y="17.80602337443566" style="stroke:blue;stroke-width:1;fill:none"/><rect width="12" height="12" x="28.64466094067263" y="28.644660940672615" style="stroke:blue;stroke-width:1;fill:none"/><rect width="12" height="12" x="17.806023374435675" y="44.86582838174549" style="stroke:blue;stroke-width:1;fill:none"/><rect width="12" height="12" x="14.0" y="63.99999999999999" style="stroke:blue;stroke-width:1;fill:none"/><rect width="12" height="12" x="17.806023374435668" y="83.1341716182545" style="stroke:blue;stroke-width:1;fill:none"/><rect width="12" height="12" x="28.64466094067265" y="99.3553390593274" style="stroke:blue;stroke-width:1;fill:none"/><rect width="12" height="12" x="44.865828381745565" y="110.19397662556436" style="stroke:blue;stroke-width:1;fill:none"/></g>
  </svg>
