<?xml version='1.0' encoding='UTF-8' standalone='no'?>
<svg version="1.1" width="140" height="140" xmlns="http://www.w3.org/2000/svg" xmlns:svg="http://www.w3.org/2000/svg">
   <g id="layer1"><rect width="6" height="6" x="64.0" y="84.0" stroke="blue" stroke-width="1" fill="none" transform="rotate(-0.0, 67.0, 87.0)"/><rect width="6" height="6" x="71.6536686473018" y="82.47759065022574" stroke="blue" stroke-width="1" fill="none" transform="rotate(-22.5, 74.6536686473018, 85.47759065022574)"/><rect width="6" height="6" x="78.14213562373095" y="78.14213562373095" stroke="blue" stroke-width="1" fill="none" transform="rotate(-45.0, 81.14213562373095, 81.14213562373095)"/><rect width="6" height="6" x="82.47759065022574" y="71.6536686473018" stroke="blue" stroke-width="1" fill="none" transform="rotate(-67.5, 85.47759065022574, 74.6536686473018)"/><rect width="6" height="6" x="84.0" y="64.0" stroke="blue" stroke-width="1" fill="none" transform="rotate(-90.0, 87.0, 67.0)"/><rect width="6" height="6" x="82.47759065022574" y="56.34633135269821" stroke="blue" stroke-width="1" fill="none" transform="rotate(-112.5, 85.47759065022574, 59.34633135269821)"/><rect width="6" height="6" x="78.14213562373095" y="49.85786437626905" stroke="blue" stroke-width="1" fill="none" transform="rotate(-135.0, 81.14213562373095, 52.85786437626905)"/><rect width="6" height="6" x="71.6536686473018" y="45.522409349774264" stroke="blue" stroke-width="1" fill="none" transform="rotate(-157.5, 74.6536686473018, 48.522409349774264)"/><rect width="6" height="6" x="64.0" y="44.0" stroke="blue" stroke-width="1" fill="none" transform="rotate(-180.0, 67.0, 47.0)"/><rect width="6" height="6" x="56.34633135269821" y="45.522409349774264" stroke="blue" stroke-width="1" fill="none" transform="rotate(-202.49999999999997, 59.34633135269821, 48.522409349774264)"/><rect width="6" height="6" x="49.85786437626905" y="49.85786437626905" stroke="blue" stroke-width="1" fill="none" transform="rotate(-225.0, 52.85786437626905, 52.85786437626905)"/><rect width="6" height="6" x="45.52240934977427" y="56.34633135269819" stroke="blue" stroke-width="1" fill="none" transform="rotate(-247.49999999999997, 48.52240934977427, 59.34633135269819)"/><rect width="6" height="6" x="44.0" y="63.99999999999999" stroke="blue" stroke-width="1" fill="none" transform="rotate(-270.0, 47.0, 67.0)"/><rect width="6" height="6" x="45.522409349774264" y="71.6536686473018" stroke="blue" stroke-width="1" fill="none" transform="rotate(-292.50000000000006, 48.522409349774264, 74.6536686473018)"/><rect width="6" height="6" x="49.85786437626906" y="78.14213562373097" stroke="blue" stroke-width="1" fill="none" transform="rotate(-315.00000000000006, 52.85786437626906, 81.14213562373097)"/><rect width="6" height="6" x="56.34633135269823" y="82.47759065022575" stroke="blue" stroke-width="1" fill="none" transform="rotate(-337.5000000000001, 59.34633135269823, 85.47759065022575)"/><rect width="6" height="6" x="64.0" y="124.0" stroke="blue" stroke-width="1" fill="none" transform="rotate(-0.0, 67.0, 127.0)"/><rect width="6" height="6" x="75.70541932096769" y="122.84711682419382" stroke="blue" stroke-width="1" fill="none" transform="rotate(-11.25, 78.70541932096769, 125.84711682419382)"/><rect width="6" height="6" x="86.96100594190538" y="119.4327719506772" stroke="blue" stroke-width="1" fill="none" transform="rotate(-22.5, 89.96100594190538, 122.4327719506772)"/><rect width="6" height="6" x="97.33421398117613" y="113.88817673815271" stroke="blue" stroke-width="1" fill="none" transform="rotate(-33.75, 100.33421398117613, 116.88817673815271)"/><rect width="6" height="6" x="106.42640687119285" y="106.42640687119285" stroke="blue" stroke-width="1" fill="none" transform="rotate(-45.0, 109.42640687119285, 109.42640687119285)"/><rect width="6" height="6" x="113.88817673815271" y="97.33421398117613" stroke="blue" stroke-width="1" fill="none" transform="rotate(-56.25, 116.88817673815271, 100.33421398117613)"/><rect width="6" height="6" x="119.4327719506772" y="86.9610059419054" stroke="blue" stroke-width="1" fill="none" transform="rotate(-67.5, 122.4327719506772, 89.9610059419054)"/><rect width="6" height="6" x="122.84711682419382" y="75.7054193209677" stroke="blue" stroke-width="1" fill="none" transform="rotate(-78.75, 125.84711682419382, 78.7054193209677)"/><rect width="6" height="6" x="124.0" y="64.0" stroke="blue" stroke-width="1" fill="none" transform="rotate(-90.0, 127.0, 67.0)"/><rect width="6" height="6" x="122.84711682419382" y="52.29458067903231" stroke="blue" stroke-width="1" fill="none" transform="rotate(-101.24999999999999, 125.84711682419382, 55.29458067903231)"/><rect width="6" height="6" x="119.4327719506772" y="41.038994058094616" stroke="blue" stroke-width="1" fill="none" transform="rotate(-112.5, 122.4327719506772, 44.038994058094616)"/><rect width="6" height="6" x="113.88817673815272" y="30.66578601882388" stroke="blue" stroke-width="1" fill="none" transform="rotate(-123.74999999999999, 116.88817673815272, 33.66578601882388)"/><rect width="6" height="6" x="106.42640687119285" y="21.573593128807154" stroke="blue" stroke-width="1" fill="none" transform="rotate(-135.0, 109.42640687119285, 24.573593128807154)"/><rect width="6" height="6" x="97.33421398117613" y="14.111823261847277" stroke="blue" stroke-width="1" fill="none" transform="rotate(-146.25000000000003, 100.33421398117613, 17.111823261847277)"/><rect width="6" height="6" x="86.96100594190537" y="8.567228049322786" stroke="blue" stroke-width="1" fill="none" transform="rotate(-157.50000000000003, 89.96100594190537, 11.567228049322786)"/><rect width="6" height="6" x="75.70541932096766" y="5.152883175806167" stroke="blue" stroke-width="1" fill="none" transform="rotate(-168.75000000000006, 78.70541932096766, 8.152883175806167)"/><rect width="6" height="6" x="63.99999999999996" y="4.0" stroke="blue" stroke-width="1" fill="none" transform="rotate(-180.00000000000003, 66.99999999999996, 7.0)"/><rect width="6" height="6" x="52.29458067903225" y="5.152883175806188" stroke="blue" stroke-width="1" fill="none" transform="rotate(-191.25000000000006, 55.29458067903225, 8.152883175806188)"/><rect width="6" height="6" x="41.038994058094545" y="8.567228049322821" stroke="blue" stroke-width="1" fill="none" transform="rotate(-202.50000000000009, 44.038994058094545, 11.567228049322821)"/><rect width="6" height="6" x="30.665786018823795" y="14.111823261847334" stroke="blue" stroke-width="1" fill="none" transform="rotate(-213.75000000000009, 33.665786018823795, 17.111823261847334)"/><rect width="6" height="6" x="21.573593128807076" y="21.573593128807218" stroke="blue" stroke-width="1" fill="none" transform="rotate(-225.0000000000001, 24.573593128807076, 24.573593128807218)"/><rect width="6" height="6" x="14.111823261847228" y="30.665786018823958" stroke="blue" stroke-width="1" fill="none" transform="rotate(-236.25000000000014, 17.111823261847228, 33.66578601882396)"/><rect width="6" height="6" x="8.56722804932275" y="41.03899405809473" stroke="blue" stroke-width="1" fill="none" transform="rotate(-247.5000000000001, 11.56722804932275, 44.03899405809473)"/><rect width="6" height="6" x="5.152883175806146" y="52.294580679032435" stroke="blue" stroke-width="1" fill="none" transform="rotate(-258.75000000000017, 8.152883175806146, 55.294580679032435)"/><rect width="6" height="6" x="4.0" y="64.00000000000014" stroke="blue" stroke-width="1" fill="none" transform="rotate(-270.00000000000017, 7.0, 67.00000000000014)"/><rect width="6" height="6" x="5.15288317580621" y="75.70541932096785" stroke="blue" stroke-width="1" fill="none" transform="rotate(-281.25000000000017, 8.15288317580621, 78.70541932096785)"/><rect width="6" height="6" x="8.567228049322864" y="86.96100594190554" stroke="blue" stroke-width="1" fill="none" transform="rotate(-292.50000000000017, 11.567228049322864, 89.96100594190554)"/><rect width="6" height="6" x="14.111823261847391" y="97.33421398117629" stroke="blue" stroke-width="1" fill="none" transform="rotate(-303.75000000000017, 17.11182326184739, 100.33421398117629)"/><rect width="6" height="6" x="21.57359312880729" y="106.426406871193" stroke="blue" stroke-width="1" fill="none" transform="rotate(-315.00000000000017, 24.57359312880729, 109.426406871193)"/><rect width="6" height="6" x="30.665786018824043" y="113.88817673815284" stroke="blue" stroke-width="1" fill="none" transform="rotate(-326.2500000000002, 33.66578601882404, 116.88817673815284)"/><rect width="6" height="6" x="41.03899405809482" y="119.43277195067729" stroke="blue" stroke-width="1" fill="none" transform="rotate(-337.5000000000002, 44.03899405809482, 122.43277195067729)"/><rect width="6" height="6" x="52.294580679032535" y="122.84711682419388" stroke="blue" stroke-width="1" fill="none" transform="rotate(-348.7500000000003, 55.294580679032535, 125.84711682419388)"/></g>
  </svg>
