<?xml version='1.0' encoding='UTF-8' standalone='no'?>
<svg version="1.1" width="140" height="140" xmlns="http://www.w3.org/2000/svg" xmlns:svg="http://www.w3.org/2000/svg">
   <g id="layer1"><rect width="6" height="6" x="64.0" y="84.0" stroke="blue" stroke-width="1" fill="none"/><rect width="6" height="6" x="71.6536686473018" y="82.47759065022574" stroke="blue" stroke-width="1" fill="none"/><rect width="6" height="6" x="78.14213562373095" y="78.14213562373095" stroke="blue" stroke-width="1" fill="none"/><rect width="6" height="6" x="82.47759065022574" y="71.6536686473018" stroke="blue" stroke-width="1" fill="none"/><rect width="6" height="6" x="84.0" y="64.0" stroke="blue" stroke-width="1" fill="none"/><rect width="6" height="6" x="82.47759065022574" y="56.34633135269821" stroke="blue" stroke-width="1" fill="none"/><rect width="6" height="6" x="78.14213562373095" y="49.85786437626905" stroke="blue" stroke-width="1" fill="none"/><rect width="6" height="6" x="71.6536686473018" y="45.522409349774264" stroke="blue" stroke-width="1" fill="none"/><rect width="6" height="6" x="64.0" y="44.0" stroke="blue" stroke-width="1" fill="none"/><rect width="6" height="6" x="56.34633135269821" y="45.522409349774264" stroke="blue" stroke-width="1" fill="none"/><rect width="6" height="6" x="49.85786437626905" y="49.85786437626905" stroke="blue" stroke-width="1" fill="none"/><rect width="6" height="6" x="45.52240934977427" y="56.34633135269819" stroke="blue" stroke-width="1" fill="none"/><rect width="6" height="6" x="44.0" y="63.99999999999999" stroke="blue" stroke-width="1" fill="none"/><rect width="6" height="6" x="45.522409349774264" y="71.6536686473018" stroke="blue" stroke-width="1" fill="none"/><rect width="6" height="6" x="49.85786437626906" y="78.14213562373097" stroke="blue" stroke-width="1" fill="none"/><rect width="6" height="6" x="56.34633135269823" y="82.47759065022575" stroke="blue" stroke-width="1" fill="none"/><rect width="6" height="6" x="64.0" y="124.0" stroke="blue" stroke-width="1" fill="none"/><rect width="6" height="6" x="75.70541932096769" y="122.84711682419382" stroke="blue" stroke-width="1" fill="none"/><rect width="6" height="6" x="86.96100594190538" y="119.4327719506772" stroke="blue" stroke-width="1" fill="none"/><rect width="6" height="6" x="97.33421398117613" y="113.88817673815271" stroke="blue" stroke-width="1" fill="none"/><rect width="6" height="6" x="106.42640687119285" y="106.42640687119285" stroke="blue" stroke-width="1" fill="none"/><rect width="6" height="6" x="113.88817673815271" y="97.33421398117613" stroke="blue" stroke-width="1" fill="none"/><rect width="6" height="6" x="119.4327719506772" y="86.9610059419054" stroke="blue" stroke-width="1" fill="none"/><rect width="6" height="6" x="122.84711682419382" y="75.7054193209677" stroke="blue" stroke-width="1" fill="none"/><rect width="6" height="6" x="124.0" y="64.0" stroke="blue" stroke-width="1" fill="none"/><rect width="6" height="6" x="122.84711682419382" y="52.29458067903231" stroke="blue" stroke-width="1" fill="none"/><rect width="6" height="6" x="119.4327719506772" y="41.038994058094616" stroke="blue" stroke-width="1" fill="none"/><rect width="6" height="6" x="113.88817673815272" y="30.66578601882388" stroke="blue" stroke-width="1" fill="none"/><rect width="6" height="6" x="106.42640687119285" y="21.573593128807154" stroke="blue" stroke-width="1" fill="none"/><rect width="6" height="6" x="97.33421398117613" y="14.111823261847277" stroke="blue" stroke-width="1" fill="none"/><rect width="6" height="6" x="86.96100594190537" y="8.567228049322786" stroke="blue" stroke-width="1" fill="none"/><rect width="6" height="6" x="75.70541932096766" y="5.152883175806167" stroke="blue" stroke-width="1" fill="none"/><rect width="6" height="6" x="63.99999999999996" y="4.0" stroke="blue" stroke-width="1" fill="none"/><rect width="6" height="6" x="52.29458067903225" y="5.152883175806188" stroke="blue" stroke-width="1" fill="none"/><rect width="6" height="6" x="41.038994058094545" y="8.567228049322821" stroke="blue" stroke-width="1" fill="none"/><rect width="6" height="6" x="30.665786018823795" y="14.111823261847334" stroke="blue" stroke-width="1" fill="none"/><rect width="6" height="6" x="21.573593128807076" y="21.573593128807218" stroke="blue" stroke-width="1" fill="none"/><rect width="6" height="6" x="14.111823261847228" y="30.665786018823958" stroke="blue" stroke-width="1" fill="none"/><rect width="6" height="6" x="8.56722804932275" y="41.03899405809473" stroke="blue" stroke-width="1" fill="none"/><rect width="6" height="6" x="5.152883175806146" y="52.294580679032435" stroke="blue" stroke-width="1" fill="none"/><rect width="6" height="6" x="4.0" y="64.00000000000014" stroke="blue" stroke-width="1" fill="none"/><rect width="6" height="6" x="5.15288317580621" y="75.70541932096785" stroke="blue" stroke-width="1" fill="none"/><rect width="6" height="6" x="8.567228049322864" y="86.96100594190554" stroke="blue" stroke-width="1" fill="none"/><rect width="6" height="6" x="14.111823261847391" y="97.33421398117629" stroke="blue" stroke-width="1" fill="none"/><rect width="6" height="6" x="21.57359312880729" y="106.426406871193" stroke="blue" stroke-width="1" fill="none"/><rect width="6" height="6" x="30.665786018824043" y="113.88817673815284" stroke="blue" stroke-width="1" fill="none"/><rect width="6" height="6" x="41.03899405809482" y="119.43277195067729" stroke="blue" stroke-width="1" fill="none"/><rect width="6" height="6" x="52.294580679032535" y="122.84711682419388" stroke="blue" stroke-width="1" fill="none"/></g>
  </svg>
