<?xml version='1.0' encoding='UTF-8' standalone='no'?>
<svg version="1.1" width="140" height="140" xmlns="http://www.w3.org/2000/svg" xmlns:svg="http://www.w3.org/2000/svg">
   <g id="layer1"><rect width="5" height="5" x="70.0" y="70.0" stroke="none" stroke-width="1" fill="purple" transform="rotate(-0.0, 72.0, 72.0)"/><rect width="5" height="5" x="70.90167659482653" y="72.17683986410458" stroke="none" stroke-width="1" fill="purple" transform="rotate(-22.5, 72.90167659482653, 74.17683986410458)"/><rect width="5" height="5" x="73.33216220361878" y="73.33216220361878" stroke="none" stroke-width="1" fill="purple" transform="rotate(-45.0, 75.33216220361878, 75.33216220361878)"/><rect width="5" height="5" x="76.53051959231372" y="72.70502978447956" stroke="none" stroke-width="1" fill="purple" transform="rotate(-67.5, 78.53051959231372, 74.70502978447956)"/><rect width="5" height="5" x="79.42477796076938" y="70.0" stroke="none" stroke-width="1" fill="purple" transform="rotate(-90.0, 81.42477796076938, 72.0)"/><rect width="5" height="5" x="80.88419932052287" y="65.4916170258674" stroke="none" stroke-width="1" fill="purple" transform="rotate(-112.5, 82.88419932052287, 67.4916170258674)"/><rect width="5" height="5" x="79.99648661085632" y="60.00351338914368" stroke="none" stroke-width="1" fill="purple" transform="rotate(-135.0, 81.99648661085632, 62.00351338914368)"/><rect width="5" height="5" x="76.31173616378564" y="54.76212095126799" stroke="none" stroke-width="1" fill="purple" transform="rotate(-157.5, 78.31173616378564, 56.76212095126799)"/><rect width="5" height="5" x="70.0" y="51.15044407846124" stroke="none" stroke-width="1" fill="purple" transform="rotate(-180.0, 72.0, 53.15044407846124)"/><rect width="5" height="5" x="61.88491064656132" y="50.408441223058844" stroke="none" stroke-width="1" fill="purple" transform="rotate(-202.49999999999997, 63.88491064656132, 52.408441223058844)"/><rect width="5" height="5" x="53.33918898190613" y="53.339188981906126" stroke="none" stroke-width="1" fill="purple" transform="rotate(-225.0, 55.33918898190613, 55.339188981906126)"/><rect width="5" height="5" x="46.0547614948497" y="60.08155745690827" stroke="none" stroke-width="1" fill="purple" transform="rotate(-247.49999999999997, 48.0547614948497, 62.08155745690827)"/><rect width="5" height="5" x="41.72566611769186" y="70.0" stroke="none" stroke-width="1" fill="purple" transform="rotate(-270.0, 43.72566611769186, 72.0)"/><rect width="5" height="5" x="41.70108176664055" y="81.72179573274477" stroke="none" stroke-width="1" fill="purple" transform="rotate(-292.50000000000006, 43.70108176664055, 83.72179573274477)"/><rect width="5" height="5" x="46.67486457466859" y="93.32513542533144" stroke="none" stroke-width="1" fill="purple" transform="rotate(-315.00000000000006, 48.67486457466859, 95.32513542533144)"/><rect width="5" height="5" x="56.474851077602246" y="102.65259796156863" stroke="none" stroke-width="1" fill="purple" transform="rotate(-337.5000000000001, 58.474851077602246, 104.65259796156863)"/><rect width="5" height="5" x="70.00000000000006" y="107.69911184307753" stroke="none" stroke-width="1" fill="purple" transform="rotate(-360.00000000000006, 72.00000000000006, 109.69911184307753)"/><rect width="5" height="5" x="85.3285021120509" y="107.00627768977773" stroke="none" stroke-width="1" fill="purple" transform="rotate(-382.5000000000001, 87.3285021120509, 109.00627768977773)"/><rect width="5" height="5" x="99.98945983256905" y="99.98945983256891" stroke="none" stroke-width="1" fill="purple" transform="rotate(-405.00000000000017, 101.98945983256905, 101.98945983256891)"/><rect width="5" height="5" x="111.35995741798695" y="87.13185530170375" stroke="none" stroke-width="1" fill="purple" transform="rotate(-427.50000000000017, 113.35995741798695, 89.13185530170375)"/><rect width="5" height="5" x="117.12388980384692" y="69.99999999999984" stroke="none" stroke-width="1" fill="purple" transform="rotate(-450.0000000000002, 119.12388980384692, 71.99999999999984)"/><rect width="5" height="5" x="115.71363714619599" y="51.06479150864291" stroke="none" stroke-width="1" fill="purple" transform="rotate(-472.5000000000003, 117.71363714619599, 53.06479150864291)"/><rect width="5" height="5" x="106.65378423980638" y="33.34621576019331" stroke="none" stroke-width="1" fill="purple" transform="rotate(-495.0000000000002, 108.65378423980638, 35.34621576019331)"/><rect width="5" height="5" x="90.73856168100973" y="19.9326831255947" stroke="none" stroke-width="1" fill="purple" transform="rotate(-517.5000000000003, 92.73856168100973, 21.9326831255947)"/><rect width="5" height="5" x="69.99999999999972" y="13.451332235383688" stroke="none" stroke-width="1" fill="purple" transform="rotate(-540.0000000000003, 71.99999999999972, 15.451332235383688)"/><rect width="5" height="5" x="47.45808512933671" y="15.579003397385755" stroke="none" stroke-width="1" fill="purple" transform="rotate(-562.5000000000003, 49.45808512933671, 17.579003397385755)"/><rect width="5" height="5" x="26.681891352955645" y="26.68189135295615" stroke="none" stroke-width="1" fill="purple" transform="rotate(-585.0000000000003, 28.681891352955645, 28.68189135295615)"/><rect width="5" height="5" x="11.225323669176333" y="45.654731939684325" stroke="none" stroke-width="1" fill="purple" transform="rotate(-607.5000000000003, 13.225323669176333, 47.654731939684325)"/><rect width="5" height="5" x="4.026554274614298" y="70.00000000000044" stroke="none" stroke-width="1" fill="purple" transform="rotate(-630.0000000000003, 6.026554274614298, 72.00000000000044)"/><rect width="5" height="5" x="6.871643940967523" y="96.14862124996952" stroke="none" stroke-width="1" fill="purple" transform="rotate(-652.5000000000005, 8.871643940967523, 98.14862124996952)"/><rect width="5" height="5" x="20.01756694571872" y="119.98243305428204" stroke="none" stroke-width="1" fill="purple" transform="rotate(-675.0000000000005, 22.01756694571872, 121.98243305428204)"/><rect width="5" height="5" x="42.04802556037842" y="137.48203578724204" stroke="none" stroke-width="1" fill="purple" transform="rotate(-697.5000000000006, 44.04802556037842, 139.48203578724204)"/></g>
  </svg>
